<?xml version="1.0" encoding="UTF-8" standalone="no"?>
<!DOCTYPE svg PUBLIC "-//W3C//DTD SVG 1.1//EN" "http://www.w3.org/Graphics/SVG/1.1/DTD/svg11.dtd">
<svg width="100%" height="100%" viewBox="0 0 480 480" version="1.1" xmlns="http://www.w3.org/2000/svg" xmlns:xlink="http://www.w3.org/1999/xlink" xml:space="preserve" xmlns:serif="http://www.serif.com/" style="fill-rule:evenodd;clip-rule:evenodd;stroke-linejoin:round;stroke-miterlimit:2;">
    <g transform="matrix(1.09086,0,0,1.09086,-22.6143,-28.3035)">
        <circle cx="240.74" cy="245.955" r="220.009" style="fill:white;"/>
    </g>
    <g id="path3085" transform="matrix(0.775334,0,0,0.775334,53.9315,53.9162)">
        <path d="M237.128,465.96C63.295,465.922 56.36,465.851 52.79,464.067C50.75,463.047 47.375,461.178 45.29,459.913C43.206,458.648 39.304,455.376 36.621,452.641C33.937,449.907 30.841,445.634 29.74,443.146C28.64,440.658 27.509,435.757 27.228,432.255C26.924,428.466 27.231,424.189 27.986,421.694C28.683,419.387 30.206,415.592 31.37,413.26C32.534,410.927 35.739,406.576 38.493,403.589C41.247,400.603 46.65,396.099 50.5,393.582L57.5,389.004L71.25,389.002C78.813,389.001 85,388.74 85,388.421C85,388.103 80.595,383.041 75.212,377.171C69.828,371.302 63.656,363.8 61.496,360.5C59.336,357.2 57.314,354.275 57.002,354C56.69,353.725 55.019,351.25 53.289,348.5C51.56,345.75 48.53,340.632 46.556,337.126C44.583,333.62 41.364,327.095 39.404,322.626C37.443,318.157 35.275,313.15 34.584,311.5C33.894,309.85 32.758,306.925 32.061,305C31.363,303.075 29.925,298.575 28.865,295C27.806,291.425 25.536,281.975 23.822,274C20.762,259.764 20.706,259.009 20.734,232.5C20.762,206.137 20.835,205.17 23.828,191.5C25.514,183.8 27.568,175.025 28.392,172C29.216,168.975 30.994,163.575 32.343,160C33.692,156.425 35.607,151.475 36.597,149C37.588,146.525 40.609,140.225 43.31,135C46.011,129.775 48.959,124.15 49.861,122.5C50.762,120.85 53.299,116.8 55.498,113.5C57.697,110.2 62.866,103.225 66.984,98C71.103,92.775 77.845,84.967 81.966,80.649C86.087,76.331 93.743,69.375 98.979,65.191C104.216,61.008 108.725,57.317 109,56.989C109.275,56.661 113.775,53.561 119,50.1C124.225,46.638 134.8,40.715 142.5,36.936C150.2,33.158 158.525,29.345 161,28.464C163.475,27.582 168.2,25.973 171.5,24.889C174.8,23.804 182.9,21.554 189.5,19.888C196.1,18.222 207.575,16.217 215,15.432C222.425,14.646 233.675,14.004 240,14.004C246.325,14.004 257.575,14.646 265,15.432C272.425,16.217 283.9,18.222 290.5,19.888C297.1,21.554 305.2,23.804 308.5,24.889C311.8,25.973 316.525,27.582 319,28.464C321.475,29.345 329.8,33.158 337.5,36.936C345.2,40.715 355.775,46.638 361,50.1C366.225,53.561 370.725,56.661 371,56.989C371.275,57.317 375.784,61.008 381.021,65.191C386.257,69.375 393.913,76.331 398.034,80.649C402.155,84.967 408.897,92.775 413.016,98C417.134,103.225 422.303,110.2 424.502,113.5C426.701,116.8 429.498,121.3 430.718,123.5C431.937,125.7 435.132,132 437.817,137.5C440.502,143 443.612,149.75 444.729,152.5C445.846,155.25 447.714,159.984 448.88,163.019C450.046,166.055 451,169.017 451,169.601C451,170.185 451.854,173.551 452.898,177.082C453.942,180.612 455.843,188.9 457.122,195.5C459.207,206.264 459.438,210.179 459.362,233.5C459.279,258.648 459.175,259.975 456.169,274C454.46,281.975 452.194,291.425 451.135,295C450.075,298.575 448.637,303.075 447.939,305C447.242,306.925 446.106,309.85 445.416,311.5C444.725,313.15 442.557,318.157 440.596,322.626C438.636,327.095 435.417,333.62 433.444,337.126C431.47,340.632 428.44,345.75 426.711,348.5C424.981,351.25 423.31,353.725 422.998,354C422.686,354.275 420.664,357.2 418.504,360.5C416.344,363.8 410.172,371.302 404.788,377.171C399.405,383.041 395,388.058 395,388.321C395,388.584 400.738,388.957 407.75,389.15C419.67,389.477 420.877,389.698 426.29,392.536C429.474,394.206 434.04,397.131 436.437,399.036C438.833,400.941 442.168,404.525 443.848,407C445.528,409.475 447.887,414.535 449.09,418.245C451.018,424.188 451.145,425.652 450.16,430.558C449.545,433.621 447.879,438.461 446.457,441.313C445.036,444.166 441.539,448.897 438.686,451.827C435.834,454.757 432.305,457.784 430.845,458.554C429.384,459.324 427.537,460.605 426.74,461.402C425.944,462.199 423.596,463.56 421.524,464.426C418.141,465.839 399.272,465.996 237.128,465.96ZM188.393,446C190.565,446 192.005,445.431 192.393,444.418C192.727,443.548 193.007,439.386 193.015,435.168C193.023,430.951 193.361,427.005 193.765,426.4C194.169,425.795 195.175,425.068 196,424.785C196.825,424.502 198.288,424.675 199.25,425.17C200.213,425.665 201,426.996 201,428.127C201,429.259 200.11,431.316 199.022,432.699C197.602,434.504 197.305,435.701 197.967,436.939C198.475,437.888 199.574,439.231 200.409,439.924C201.696,440.992 202.39,440.455 204.964,436.396C206.634,433.763 208,430.767 208,429.738C208,428.71 207.495,426.886 206.878,425.684C206.261,424.483 204.601,422.263 203.191,420.75C201.275,418.696 199.678,418 196.88,418C194.068,418 192.983,417.523 192.527,416.085C192.193,415.032 192.222,412.962 192.593,411.485C193.263,408.815 193.309,408.802 201.176,409.16C206.585,409.405 209.36,409.964 209.955,410.927C210.434,411.702 211.147,419.003 211.54,427.151C211.965,435.97 212.74,442.629 213.453,443.605C214.28,444.735 215.348,445.024 216.888,444.536C219.103,443.833 219.121,443.67 218.812,426.876L218.5,409.925L221.418,409.17C223.022,408.755 224.822,407.621 225.418,406.649C226.273,405.254 226.092,404.58 224.559,403.441C222.95,402.247 216.244,402 185.386,402L148.153,402L144.99,404.662C141.976,407.198 141.848,407.599 142.273,413.163C142.553,416.839 142.268,419.619 141.503,420.664C140.807,421.617 139.611,422.065 138.698,421.715C137.379,421.208 137.204,419.945 137.674,414.302C138.212,407.854 138.098,407.357 135.484,404.75C133.881,403.151 131.634,402.002 130.114,402.004C128.676,402.006 126.008,402.917 124.184,404.029C121.761,405.507 120.953,406.65 121.184,408.276C121.428,409.993 122.07,410.435 124,410.216C125.375,410.06 127.4,409.835 128.5,409.716C129.921,409.562 130.596,410.184 130.834,411.865C131.061,413.467 130.139,415.293 127.975,417.526L124.78,420.822L127.523,423.161C129.032,424.447 130.88,426.094 131.631,426.819C132.618,427.773 132.718,428.659 131.993,430.014C131.441,431.045 130.561,432.153 130.039,432.476C129.516,432.799 127.568,432.428 125.709,431.652C123.52,430.737 121.378,428.614 119.623,425.62C118.134,423.079 116.246,421 115.426,421C114.607,421 113.685,421.656 113.377,422.459C113.07,423.261 113.339,425.496 113.975,427.425C114.612,429.355 116.693,432.493 118.6,434.4C120.507,436.307 123.667,438.395 125.623,439.041C127.579,439.686 130.558,439.938 132.244,439.601C133.93,439.264 135.915,438.486 136.655,437.872C137.445,437.215 138,434.744 138,431.878C138,427.306 138.161,427 140.571,427C143.136,427 143.14,427.014 142.674,434.187C142.416,438.139 142.433,441.964 142.71,442.687C142.987,443.409 144.447,444 145.954,444L148.694,444L149.343,432.75C149.699,426.563 149.993,418.913 149.995,415.75C150,410.029 150.015,410 153,410L156,410L156,427.031C156,441.877 156.21,444.143 157.636,444.691C158.536,445.036 159.998,444.859 160.886,444.297C162.269,443.423 162.5,440.822 162.5,426.137L162.5,408.998L173.75,408.999C182.963,409 185,409.265 185,410.465C185,411.27 184.13,412.395 183.066,412.965C182.002,413.534 179.707,414 177.966,414C175.699,414 173.835,414.965 171.4,417.4C168.227,420.573 168,421.237 168,427.332C168,433.4 168.206,434.011 170.904,435.932C172.502,437.069 174.774,438 175.954,438C177.134,438 179.383,437.336 180.952,436.525C183.494,435.21 183.87,435.219 184.403,436.607C184.731,437.463 185,439.927 185,442.082C185,445.87 185.113,446 188.393,446L188.393,446ZM176.744,431C175.418,431 174.033,430.7 173.667,430.333C173.3,429.967 173,428.417 173,426.889C173,425.361 174.072,422.865 175.383,421.342C177.504,418.875 178.045,418.699 180.321,419.736C181.726,420.377 183.377,421.835 183.988,422.978C184.93,424.737 184.645,425.509 182.127,428.027C180.474,429.68 178.083,431 176.744,431ZM292.465,446C293.27,446 294.395,445.13 294.965,444.066C295.554,442.966 296,435.29 296,426.266C296,415.259 296.368,410.032 297.2,409.2C297.86,408.54 298.873,408.007 299.45,408.015C300.028,408.023 301.175,408.456 302,408.977C303.205,409.737 303.598,413.32 304,427.211L304.5,444.5L307.056,444.798C308.89,445.011 309.948,444.447 310.806,442.798C311.551,441.365 312.095,434.481 312.25,424.513C312.483,409.607 312.631,408.5 314.434,408.154C315.498,407.95 316.96,408.592 317.684,409.582C318.57,410.794 319,414.74 319,421.657C319,429.163 319.447,432.87 320.659,435.41C321.571,437.324 323.539,439.395 325.032,440.013C326.526,440.632 329.267,440.849 331.124,440.495C332.981,440.142 335.475,439.056 336.667,438.083C338.655,436.46 338.862,435.224 339.167,423.204C339.378,414.904 339.932,409.664 340.677,408.92C341.364,408.235 342.937,408.018 344.459,408.4L347.063,409.054L346.389,424.575C345.869,436.525 346.016,440.661 347.026,442.548C347.748,443.897 349.107,445 350.047,445C350.986,445 352.22,444.438 352.787,443.75C353.357,443.06 354.054,434.882 354.343,425.5C354.631,416.15 354.897,408.388 354.933,408.25C354.97,408.113 355.9,408 357,408C358.921,408 359,408.667 359,424.845C359,440.176 359.172,441.846 360.917,443.425C362.469,444.829 363.242,444.941 364.977,444.012C367.047,442.904 367.113,442.307 366.926,426.391C366.748,411.287 366.888,409.8 368.616,408.517C370.115,407.403 370.275,406.747 369.399,405.309C368.794,404.314 366.994,403.355 365.399,403.179C363.641,402.984 360.729,401.164 358,398.555C355.525,396.188 351.435,393.07 348.912,391.626C346.389,390.182 343.067,389 341.53,389C339.993,389 337.278,389.901 335.495,391.003C333.083,392.494 332.095,393.963 331.628,396.753C331.283,398.814 330.609,401.107 330.13,401.849C329.427,402.938 321.948,403.228 291.38,403.349C253.854,403.499 253.497,403.519 253.203,405.576C253.011,406.924 253.667,407.992 255.075,408.62C257.169,409.555 257.248,410.173 257.372,426.53C257.489,441.984 257.658,443.502 259.298,443.818C260.287,444.009 261.749,443.623 262.548,442.96C263.706,441.999 264,438.538 264,425.878L264,410L269.5,409.9C272.525,409.845 277.475,409.8 280.5,409.8C283.525,409.8 286.9,409.845 288,409.9C289.3,409.965 290,410.7 290,412C290,413.754 289.333,414 284.577,414C280.235,414 278.554,414.504 276.149,416.528C274.496,417.919 272.389,421.032 271.467,423.447C270.038,427.189 269.977,428.401 271.055,431.666C271.75,433.772 273.629,436.719 275.231,438.216C276.833,439.712 279.639,441.217 281.466,441.56C283.366,441.916 285.746,441.671 287.022,440.988C288.803,440.035 289.428,440.067 290.112,441.147C290.583,441.891 290.976,443.287 290.985,444.25C290.993,445.212 291.659,446 292.465,446ZM328.816,436.97C328.642,436.953 327.712,436.481 326.75,435.92C325.239,435.04 325,433.28 325,423.032C325,416.504 325.273,410.452 325.607,409.582C325.941,408.712 327.201,408 328.407,408C329.613,408 331.14,408.54 331.8,409.2C332.603,410.003 333,414.459 333,422.665C333,433.767 332.817,435.028 331.066,435.965C330.002,436.534 328.989,436.986 328.816,436.97ZM279.24,435C278.778,435 277.86,434.46 277.2,433.8C276.54,433.14 276,431.731 276,430.668C276,429.605 276.905,427.272 278.011,425.482C279.118,423.692 281.03,421.957 282.261,421.627C283.493,421.297 285.297,421.021 286.271,421.014C287.246,421.006 288.51,422.025 289.081,423.278C289.79,424.835 289.796,426.406 289.1,428.237C288.507,429.798 286.409,431.771 284.08,432.959C281.88,434.082 279.702,435 279.24,435ZM347.75,403.965C344.313,403.945 340.542,403.383 339.371,402.715C337.744,401.786 337.43,401.003 338.038,399.389C338.475,398.228 339.606,396.982 340.551,396.619C341.495,396.256 343.671,396.227 345.384,396.553C347.098,396.879 349.738,398.216 351.25,399.525C352.763,400.833 354,402.376 354,402.952C354,403.575 351.463,403.986 347.75,403.965L347.75,403.965ZM245.75,444.96C247.127,444.984 248,444.402 248,443.46C248,442.613 246.2,440.208 244,438.115C241.8,436.022 240,433.808 240,433.194C240,432.58 240.845,431.273 241.877,430.289C242.91,429.305 244.755,426.516 245.979,424.091C247.202,421.666 248.29,417.616 248.396,415.091C248.502,412.566 248.212,409.375 247.753,408C247.293,406.625 245.768,404.66 244.364,403.632C242.349,402.158 241.148,401.954 238.656,402.663C236.518,403.272 234.855,404.76 233.5,407.279C231.657,410.704 231.621,411.211 233.038,413.748C233.902,415.293 235.437,416.5 236.538,416.5C238.007,416.5 238.626,415.641 239,413.079C239.275,411.198 240.046,409.479 240.713,409.258C241.38,409.038 242.238,410.1 242.619,411.619C243.093,413.507 242.709,415.506 241.405,417.94C239.701,421.12 239.035,421.518 235.172,421.664C232.665,421.759 230.039,422.56 228.924,423.569C227.866,424.527 227,426.365 227,427.655C227,428.945 227.45,430 228.001,430C228.552,430 231.13,432.74 233.73,436.088C236.33,439.436 239.592,442.793 240.979,443.548C242.365,444.303 244.513,444.938 245.75,444.96ZM110.667,372.562C114.882,372.33 119.62,371.355 122.167,370.197C124.55,369.114 128.251,366.489 130.392,364.364C132.532,362.239 135.12,358.55 136.142,356.167C137.186,353.733 138,349.476 138,346.455C138,343.496 137.1,338.669 135.999,335.727C134.899,332.786 132.36,327.707 130.357,324.44C128.354,321.173 126.076,317.271 125.295,315.77C124.513,314.268 123.448,312.777 122.927,312.455C122.407,312.134 119.09,305.937 115.555,298.685C112.02,291.433 108.393,283.475 107.493,281C106.594,278.525 105.401,274.925 104.842,273C104.283,271.075 103.162,267.25 102.351,264.5C101.54,261.75 100.41,255.45 99.841,250.5C99.271,245.55 99.023,234.975 99.291,227C99.671,215.65 100.351,210.327 102.419,202.5C103.873,197 105.771,190.7 106.637,188.5C107.504,186.3 109.177,182.25 110.355,179.5C111.533,176.75 114.451,170.9 116.841,166.5C119.23,162.1 123.269,155.35 125.816,151.5C128.363,147.65 132.424,142.031 134.841,139.014C137.257,135.997 142.123,131.227 145.652,128.415C149.182,125.602 153.292,122.671 154.785,121.902C156.278,121.133 157.729,120.202 158.008,119.834C158.287,119.466 161.437,117.493 165.008,115.449C168.579,113.405 174.425,110.272 178,108.487C181.575,106.703 187.425,104.11 191,102.726C194.575,101.342 200.65,99.286 204.5,98.157C208.35,97.029 212.85,95.878 214.5,95.599C216.15,95.321 221.313,94.622 225.974,94.046C230.634,93.471 237.5,93 241.23,93C244.961,93 252.623,93.688 258.257,94.528C263.89,95.369 271.775,96.971 275.778,98.089C279.782,99.206 287.207,101.866 292.278,104C297.35,106.134 304.14,109.27 307.366,110.97C310.593,112.669 318.243,117.395 324.366,121.473C330.49,125.551 336.4,129.701 337.5,130.694C338.6,131.687 341.559,134.975 344.076,138C346.592,141.025 350.866,146.875 353.572,151C356.279,155.125 359.257,159.85 360.191,161.5C361.125,163.15 363.97,168.746 366.514,173.936C369.057,179.126 371.827,185.201 372.67,187.436C373.513,189.671 375.534,196.45 377.163,202.5C379.938,212.813 380.13,214.718 380.231,233C380.33,250.876 380.126,253.333 377.772,262.5C376.36,268 374.211,275.2 372.997,278.5C371.783,281.8 369.256,287.875 367.382,292C365.508,296.125 363.534,300.175 362.996,301C362.458,301.825 360.831,304.75 359.381,307.5C357.931,310.25 356.352,312.65 355.872,312.833C355.393,313.017 355,313.604 355,314.138C355,314.673 353.242,317.698 351.094,320.861C348.946,324.025 346.021,329.387 344.594,332.776C342.748,337.162 342,340.719 342,345.11C342,349.497 342.65,352.593 344.25,355.821C345.488,358.319 348.032,361.855 349.903,363.681C351.775,365.506 354.048,367 354.953,367C355.859,367 357.028,367.427 357.55,367.948C358.073,368.469 361.192,369.318 364.482,369.833C368.913,370.527 371.83,370.414 375.736,369.396C378.636,368.641 382.592,367.362 384.526,366.554C386.46,365.746 390.652,363.076 393.842,360.622C397.031,358.167 400.831,354.6 402.285,352.694C403.738,350.788 408.117,342.539 412.016,334.364C415.914,326.189 419.518,318.6 420.024,317.5C420.531,316.4 421.903,313.025 423.073,310C424.244,306.975 426.287,301.35 427.614,297.5C428.941,293.65 431.184,286.225 432.6,281C434.015,275.775 435.336,270.375 435.534,269C435.732,267.625 436.801,261.27 437.909,254.877C439.548,245.419 439.869,239.738 439.636,224.377C439.413,209.671 438.861,203.126 437.14,194.756C435.925,188.847 433.19,178.722 431.063,172.256C428.936,165.79 424.897,155.775 422.088,150C419.278,144.225 415.842,137.544 414.451,135.153C413.06,132.762 409.155,126.687 405.773,121.653C402.392,116.619 399.055,111.926 398.359,111.225C397.663,110.524 395.398,107.824 393.327,105.225C391.256,102.626 386.223,96.766 382.144,92.203C378.064,87.64 371.751,81.816 368.113,79.261C364.476,76.706 360.825,73.987 360,73.218C359.175,72.45 354,68.897 348.5,65.324C343,61.751 332.2,55.745 324.5,51.977C316.8,48.209 307.8,44.171 304.5,43.002C301.2,41.834 297.793,40.722 296.929,40.531C296.065,40.34 292.915,39.455 289.929,38.564C286.943,37.673 280.225,35.991 275,34.826C267.663,33.19 260.946,32.606 245.5,32.259C227.134,31.848 224.286,32.027 210.643,34.454C202.472,35.907 189.71,39.086 182.283,41.517C174.856,43.949 168.266,46.329 167.64,46.806C167.013,47.283 163.8,48.742 160.5,50.049C157.2,51.355 149.497,55.181 143.382,58.55C137.268,61.919 130.898,65.648 129.228,66.838C127.558,68.027 125.806,69 125.335,69C124.865,69 123.359,70.013 121.99,71.251C120.62,72.49 116.907,75.268 113.738,77.426C110.569,79.584 104.406,84.983 100.043,89.424C95.68,93.866 89.741,100.65 86.845,104.5C83.95,108.35 80.767,112.381 79.772,113.458C78.778,114.535 76.07,118.36 73.754,121.958C71.438,125.556 69.257,128.725 68.906,129C68.556,129.275 67.248,131.525 66,134C64.752,136.475 63.433,138.725 63.069,139C62.705,139.275 60.567,143.1 58.317,147.5C56.068,151.9 52.861,158.65 51.19,162.5C49.52,166.35 46.587,174.675 44.673,181C42.759,187.325 40.94,194.075 40.632,196C40.323,197.925 39.325,204.214 38.415,209.977C37.141,218.035 36.883,224.382 37.297,237.477C37.593,246.839 38.534,258.325 39.388,263C40.243,267.675 41.683,274.2 42.59,277.5C43.497,280.8 45.556,287.55 47.166,292.5C48.776,297.45 50.496,302.4 50.988,303.5C51.48,304.6 53.315,308.875 55.066,313C56.817,317.125 60.294,324.325 62.793,329C65.293,333.675 70.051,342 73.368,347.5C76.685,353 81.221,359.459 83.449,361.853C85.677,364.247 88.807,367.14 90.404,368.281C92.002,369.422 95.602,370.941 98.404,371.657C101.253,372.384 106.66,372.783 110.667,372.562ZM410.67,302.41C408.186,302.997 407.916,302.839 408.461,301.123C408.802,300.048 408.691,298.927 408.213,298.632C407.736,298.337 403.33,297.362 398.423,296.466C393.515,295.57 388.417,294.623 387.094,294.36C384.853,293.916 384.802,293.77 386.347,292.225C387.259,291.312 389.242,290.508 390.753,290.437C393,290.332 393.44,289.901 393.173,288.068C392.993,286.836 393.668,284.905 394.673,283.776C395.678,282.647 397.948,281.111 399.718,280.362C401.488,279.613 404.27,279 405.901,279C408.393,279 408.918,279.439 409.184,281.75C409.397,283.603 410.152,284.593 411.5,284.785C413.058,285.008 413.777,284.182 414.75,281.051C415.438,278.84 416,276.429 416,275.692C416,274.746 412.46,273.831 403.925,272.571L391.85,270.789L393.924,268.581C395.991,266.38 396.029,266.378 406.468,267.884C412.227,268.715 417.114,269.194 417.328,268.948C417.543,268.701 418.007,267.298 418.358,265.829C418.989,263.196 418.911,263.15 412.749,262.541C409.312,262.201 404.25,261.76 401.5,261.56C398.75,261.361 396.093,261.153 395.595,261.099C395.097,261.044 395.448,260.163 396.373,259.14C397.712,257.661 397.846,256.726 397.028,254.575C396.463,253.087 396,250.412 396,248.631C396,246.285 396.896,244.53 399.25,242.266C401.038,240.546 404.865,237.957 407.756,236.514C410.646,235.07 413.471,234.173 414.032,234.52C414.594,234.867 414.929,235.887 414.777,236.786C414.576,237.975 415.525,238.594 418.25,239.053C420.313,239.401 422.028,239.643 422.062,239.593C422.097,239.542 422.368,237.343 422.666,234.706L423.208,229.912L413.854,230.507C408.709,230.834 403.037,231.324 401.25,231.596C399.462,231.868 398,232.51 398,233.022C398,233.535 396.923,234.66 395.606,235.523C394.059,236.536 392.269,236.855 390.548,236.423C389.084,236.055 387.189,234.692 386.338,233.393C384.901,231.199 384.968,230.73 387.292,226.765C388.667,224.418 390.711,221.667 391.833,220.651C392.956,219.635 394.27,219.049 394.755,219.349C395.239,219.648 396.796,219.13 398.214,218.196C399.631,217.263 402.751,215.145 405.146,213.488C407.541,211.832 410.546,210.336 411.824,210.163C413.502,209.936 414.303,210.441 414.705,211.978C415.147,213.67 415.901,214.045 418.381,213.804C421.368,213.513 421.5,213.31 421.488,209C421.478,205.142 421.193,204.516 419.488,204.61C418.395,204.67 413.047,205.242 407.604,205.881C402.161,206.519 397.508,206.841 397.263,206.596C397.018,206.351 397.096,205.274 397.436,204.201C397.923,202.666 399.337,202.107 404.09,201.569C409.555,200.951 410.095,200.681 409.812,198.704C409.633,197.453 408.646,196.368 407.5,196.163C406.4,195.967 405.078,195.406 404.563,194.916C403.991,194.373 404.545,193.049 405.988,191.513C407.286,190.131 409.365,189 410.607,189C411.908,189 413.069,189.742 413.345,190.75C413.609,191.713 414.117,194.225 414.474,196.334C414.961,199.214 415.5,200.022 416.643,199.584C417.479,199.263 418.504,199 418.921,199C419.337,199 418.889,195.363 417.924,190.919C416.96,186.474 415.99,182.657 415.769,182.436C415.548,182.215 413.865,182.465 412.028,182.992C410.191,183.519 406.845,184.211 404.594,184.53C402.342,184.848 398.925,185.532 397,186.049C395.075,186.566 392.98,186.991 392.344,186.994C391.685,186.997 391.409,186.153 391.702,185.033C391.985,183.951 392.749,182.623 393.401,182.082C394.053,181.541 396.367,180.883 398.543,180.621C400.719,180.358 403.063,180.11 403.75,180.071C404.438,180.032 405,179.175 405,178.167C405,177.158 404.724,176.057 404.387,175.72C404.05,175.383 402.452,176.085 400.835,177.28C398.116,179.291 397.696,179.34 395.198,177.943C393.714,177.113 392.353,175.411 392.173,174.162C391.983,172.842 392.954,170.438 394.49,168.424C395.944,166.518 398.251,164.226 399.618,163.331C401.362,162.188 402.418,162.018 403.158,162.758C403.899,163.499 403.482,164.293 401.761,165.421C400.412,166.305 398.819,168.102 398.221,169.414C397.623,170.727 397.404,172.07 397.734,172.4C398.063,172.73 399.08,173 399.992,173C400.905,173 402.708,171.875 404,170.5C405.292,169.125 406.679,168 407.082,168C407.485,168 408.392,170.25 409.097,173C410.042,176.688 410.853,178 412.189,178C413.185,178 414,177.863 414,177.696C414,177.53 412.395,172.692 410.434,166.946C408.472,161.201 406.613,155.687 406.302,154.693C405.966,153.617 405.146,153.114 404.276,153.448C403.472,153.756 401.762,154.273 400.476,154.595C398.584,155.07 397.695,154.499 395.819,151.603C394.544,149.635 392.673,148.019 391.661,148.012C390.04,148.001 390.129,148.365 392.411,151.077C393.835,152.769 395,154.604 395,155.154C395,155.704 393.639,157.515 391.975,159.179C389.525,161.629 388.432,162.074 386.227,161.521C384.729,161.145 383.354,160.688 383.171,160.504C382.988,160.321 383.356,159.204 383.989,158.021C384.914,156.292 385.713,155.998 388.07,156.515C390.06,156.952 391,156.768 391,155.94C391,155.269 390.212,154.123 389.25,153.392C388.288,152.661 386.353,152.049 384.95,152.032C383.548,152.014 381.86,152.54 381.2,153.2C380.54,153.86 380,155.226 380,156.235C380,157.245 380.682,159.111 381.515,160.382C382.902,162.499 382.853,162.917 380.942,165.347C379.586,167.07 377.89,168 376.102,168C374.451,168 372.399,166.989 370.977,165.475C369.414,163.812 368.642,161.851 368.713,159.725C368.773,157.951 369.3,155.263 369.886,153.75C370.471,152.238 371.625,151 372.45,151C373.647,151 373.753,151.518 372.975,153.565C372.439,154.976 372,157.258 372,158.637C372,160.015 372.643,161.786 373.429,162.571C374.214,163.357 375.902,163.97 377.179,163.932C379.465,163.866 379.468,163.849 377.402,162.847C375.478,161.914 375.381,161.403 376.232,156.665C376.742,153.824 378.102,150.488 379.254,149.25C380.576,147.83 382.518,147 384.519,147C386.444,147 388.418,146.196 389.543,144.953C390.689,143.686 392.357,143.019 393.916,143.203C395.443,143.383 397.303,144.792 398.639,146.781C399.919,148.687 401.119,149.617 401.5,149C401.862,148.415 400.826,145.588 399.199,142.718C396.86,138.592 395.785,137.568 394.062,137.823C392.863,138 388.039,139.913 383.342,142.073C378.644,144.233 374.396,146 373.9,146C373.405,146 373,145.155 373,144.122C373,143.09 373.674,141.686 374.498,141.002C375.799,139.922 375.603,139.312 372.998,136.345C371.349,134.467 370,132.081 370,131.042C370,130.003 371.206,127.721 372.679,125.969C375.072,123.126 375.785,122.842 379.332,123.318C381.671,123.631 384.311,124.856 385.75,126.296C387.095,127.641 388.264,129.924 388.348,131.37C388.432,132.816 389.036,133.999 389.691,133.999C390.346,134 391.165,133.542 391.512,132.981C391.858,132.421 390.084,129.226 387.571,125.882C385.057,122.538 383,119.227 383,118.523C383,117.82 383.617,116.733 384.371,116.107C385.458,115.205 386.402,115.853 388.924,119.234C390.674,121.58 394.213,126.425 396.788,130C399.363,133.575 403.389,139.839 405.735,143.921C408.081,148.002 410,151.625 410,151.971C410,152.317 410.487,153.087 411.081,153.681C411.676,154.276 414.408,161.454 417.153,169.631C419.897,177.809 422.295,185.625 422.48,187C422.666,188.375 423.745,193.325 424.879,198C426.013,202.675 427.355,212.125 427.861,219C428.368,225.875 428.422,234.2 427.982,237.5C427.542,240.8 426.627,248 425.949,253.5C425.272,259 424.359,264.467 423.922,265.648C423.485,266.83 422.854,269.629 422.52,271.868C422.186,274.108 420.846,279.442 419.542,283.72C418.239,287.999 416.479,293.413 415.631,295.75C414.783,298.088 414.384,300 414.744,300C415.105,300 414.973,300.392 414.45,300.871C413.928,301.35 412.227,302.042 410.67,302.41ZM410.75,292.193C411.438,291.327 412,290.09 412,289.445C412,288.736 410.517,288.317 408.25,288.386C404.845,288.49 404.412,288.201 403.543,285.25C403.017,283.462 402.285,282 401.916,282C401.547,282 400.677,282.684 399.984,283.52C399.084,284.604 398.986,285.966 399.642,288.27C400.422,291.008 401.242,291.673 405.031,292.634C408.819,293.595 409.69,293.528 410.75,292.193ZM417.862,258C419.431,258 419.895,256.995 420.476,252.343C420.865,249.232 421.415,246.082 421.699,245.343C422.087,244.33 420.993,244 417.242,244C413.707,244 411.499,243.394 409.604,241.903C407.354,240.133 406.67,240.009 405.219,241.104C404.274,241.818 402.938,243.072 402.25,243.892C401.563,244.712 401,247.046 401,249.08C401,251.372 401.779,253.676 403.048,255.139L405.096,257.5L404.481,254.309C404.143,252.553 404.343,250.227 404.926,249.139C405.508,248.051 407.538,246.647 409.437,246.021C412.284,245.081 413.321,245.164 415.349,246.493C416.703,247.38 418.098,249.254 418.45,250.659C418.852,252.258 418.505,254.107 417.523,255.606C416.057,257.843 416.079,258 417.862,258ZM410.923,257C411.381,257 412.297,256.347 412.96,255.548C413.623,254.749 414.015,253.335 413.833,252.405C413.65,251.475 412.734,250.232 411.798,249.643C410.862,249.053 409.795,248.871 409.428,249.239C409.061,249.606 409.059,251.503 409.425,253.453C409.791,255.404 410.465,257 410.923,257L410.923,257ZM393.523,234C394.335,234 395,233.572 395,233.05C395,232.527 394.308,231.712 393.462,231.239C392.134,230.496 392.215,230.116 394.053,228.452C396.111,226.59 396.225,226.587 397.521,228.36C398.809,230.122 398.914,230.111 400.172,228.097C401.081,226.64 402.512,226 404.857,226C407.703,226 408.154,225.696 407.727,224.065C407.449,223 407.811,221.287 408.533,220.257C409.655,218.655 409.579,218.218 408.009,217.238C406.503,216.297 405.484,216.591 402.329,218.877C400.215,220.408 397.893,221.464 397.171,221.224C396.448,220.983 394.723,221.846 393.337,223.143C391.951,224.439 390.376,226.318 389.837,227.317C389.133,228.623 389.306,229.818 390.452,231.567C391.329,232.905 392.711,234 393.523,234ZM417.813,225.272C419.841,224.952 421.831,224.198 422.235,223.595C422.639,222.993 422.969,222.275 422.969,222C422.969,221.725 422.566,220.863 422.073,220.085C421.531,219.228 419.706,218.725 417.447,218.81C415.396,218.887 413.513,219.154 413.263,219.403C413.014,219.653 413.106,221.206 413.468,222.855C414.087,225.671 414.351,225.818 417.813,225.272ZM381.418,135C382.773,135 384.187,134.507 384.559,133.904C384.932,133.301 384.578,132.149 383.773,131.344C382.487,130.059 382.104,130.192 380.631,132.44C378.988,134.948 379.004,135 381.418,135ZM375.872,132.969C376.218,132.951 377.309,131.826 378.297,130.469C380.068,128.035 380.06,128 377.747,128C376.456,128 374.871,128.529 374.224,129.176C373.365,130.035 373.344,130.71 374.146,131.676C374.75,132.404 375.527,132.986 375.872,132.969L375.872,132.969ZM66.02,298.989C64.328,299.895 63.846,299.023 60.906,289.745C59.121,284.11 57.534,279.05 57.378,278.5C57.222,277.95 56.145,272.55 54.984,266.5C53.091,256.633 52.925,253.08 53.378,232C53.656,219.075 54.101,206.769 54.367,204.653C54.8,201.196 54.647,200.859 52.856,201.327C51.76,201.614 49.542,201.388 47.926,200.824C46.119,200.194 44.754,198.869 44.381,197.381C44.047,196.05 44.351,193.567 45.056,191.864C45.762,190.161 48.13,187.469 50.32,185.883C52.509,184.298 54.908,183 55.65,183C56.393,183 57,183.239 57,183.531C57,183.822 55.447,185.425 53.548,187.092C51.649,188.759 49.812,191.017 49.465,192.11C49.118,193.202 49.377,194.749 50.04,195.548C50.703,196.347 52.252,197 53.483,197C55.313,197 56.014,196.042 57.326,191.75C58.209,188.863 60.041,182.844 61.396,178.377C62.752,173.909 65.628,166.484 67.788,161.877C69.949,157.269 71.995,152.375 72.337,151C72.679,149.625 73.959,146.925 75.182,145C76.404,143.075 77.426,141.229 77.452,140.899C77.479,140.568 81.04,135.506 85.367,129.649C92.2,120.398 93.612,119 96.117,119C97.702,119 99,119.423 99,119.941C99,120.459 98.55,121.16 98,121.5C97.45,121.84 97,122.511 97,122.992C97,123.472 97.909,124.154 99.019,124.506C100.13,124.859 104.962,126.96 109.758,129.176L118.478,133.204L115.489,134.463C113.577,135.268 111.866,135.397 110.741,134.821C109.374,134.121 108.785,134.431 108.105,136.21C107.624,137.469 106.312,139.327 105.19,140.337C103.757,141.627 101.564,142.181 97.825,142.195C94.896,142.207 92.015,142.167 91.423,142.108C90.818,142.047 90.532,140.738 90.769,139.118C91.002,137.534 90.671,135.914 90.033,135.52C89.396,135.126 87.956,135.635 86.835,136.65C85.713,137.665 84.133,139.776 83.324,141.341C82.515,142.906 81.998,144.324 82.176,144.493C82.354,144.663 86.325,146.225 91,147.964C95.675,149.704 100.538,151.551 101.806,152.068C103.075,152.585 103.869,153.403 103.571,153.885C103.273,154.367 101.786,154.999 100.265,155.29C98.745,155.58 95.701,155.16 93.5,154.355C91.3,153.55 87.169,152.051 84.321,151.024L79.141,149.156L78.13,152.056C77.12,154.953 77.127,154.959 83.31,156.843C86.714,157.881 91.863,159.285 94.75,159.965C97.638,160.644 100,161.55 100,161.978C100,162.407 98.677,163.305 97.06,163.975C95.444,164.645 93.725,164.948 93.24,164.649C92.756,164.349 91.15,163.885 89.671,163.617C88.193,163.349 86.146,162.864 85.123,162.539C83.717,162.093 82.949,162.709 81.972,165.067C80.891,167.676 80.911,168.341 82.09,169.144C82.866,169.672 86.088,169.862 89.25,169.567C93.65,169.157 95,169.345 95,170.368C95,171.232 92.769,172.074 88.69,172.75C85.22,173.325 81.133,173.557 79.609,173.266C77.951,172.949 76.384,171.742 75.71,170.263C74.804,168.275 74.922,167.2 76.314,164.775C77.672,162.409 77.789,161.451 76.857,160.328C75.86,159.126 75.358,159.386 73.74,161.942C72.679,163.618 70.785,167.925 69.531,171.513C68.277,175.101 67.532,178.201 67.876,178.401C68.219,178.601 69.928,179.071 71.673,179.445L74.846,180.125L73.423,183.53C72.64,185.403 72,187.4 72,187.968C72,188.536 72.619,189 73.375,189C74.175,189 74.75,187.955 74.75,186.503C74.75,185.13 75.309,183.333 75.991,182.51C76.674,181.688 79.018,180.534 81.199,179.946C84.429,179.077 85.614,179.172 87.583,180.462C88.912,181.333 90,182.658 90,183.406C90,184.155 88.775,185.001 87.277,185.287C85.326,185.66 84.176,185.268 83.22,183.904C82.487,182.857 81.462,182 80.943,182C80.424,182 80,183.365 80,185.032C80,187.226 80.597,188.285 82.159,188.863C83.347,189.302 85.371,189.461 86.658,189.215C87.944,188.969 90.353,187.223 92.011,185.335C94.464,182.541 95.141,182.203 95.645,183.517C96.044,184.558 95.073,186.361 92.911,188.592C91.066,190.495 87.8,192.579 85.652,193.222C82.368,194.206 81.288,194.128 78.851,192.729C76.708,191.499 75.31,191.312 73.477,192.009C71.899,192.609 70.051,192.59 68.387,191.957C66.38,191.194 65.886,190.446 66.258,188.732C66.525,187.504 67.074,185.712 67.478,184.75C67.911,183.721 67.777,183 67.154,183C66.571,183 65.173,185.082 64.047,187.627C62.921,190.172 62,193.268 62,194.508C62,196.641 62.615,196.829 73.544,198.048C79.894,198.755 85.308,199.689 85.576,200.123C85.844,200.557 84.95,201.642 83.589,202.534C81.387,203.976 80.052,204.016 71.479,202.894C63.236,201.816 61.713,201.841 60.937,203.067C60.439,203.855 60.024,204.997 60.015,205.605C60.007,206.243 62.856,206.981 66.75,207.348C70.463,207.699 75.836,207.989 78.691,207.993C81.546,207.997 84.123,208.39 84.417,208.866C84.712,209.343 84.093,210.511 83.041,211.463C81.59,212.776 79.79,213.109 75.563,212.846C71.787,212.611 69.998,212.876 69.999,213.668C69.999,214.311 69.727,215.548 69.393,216.418C68.953,217.564 69.39,218 70.976,218C72.269,218 73.008,218.512 72.779,219.25C72.566,219.938 70.738,221.32 68.717,222.322C66.696,223.324 64.556,223.844 63.961,223.476C63.262,223.044 63.118,220.901 63.555,217.404C64.181,212.399 64.079,212 62.174,212C61.043,212 59.925,212.338 59.688,212.75C59.452,213.163 58.948,216.762 58.569,220.75L57.879,228L83.244,228L81.755,230.25C80.5,232.145 79.22,232.547 73.633,232.796C67.318,233.077 67,233.21 67,235.571C67,237.937 67.127,237.989 69.75,236.702C71.263,235.96 73.4,235.547 74.5,235.784C75.6,236.021 77.053,236.664 77.728,237.212C78.403,237.76 78.814,239.138 78.64,240.275C78.467,241.412 77.052,243.615 75.496,245.171C73.94,246.727 72.044,248 71.284,248C70.523,248 68.573,248.687 66.95,249.526C64.475,250.806 64,250.825 64,249.647C64,248.875 65.317,247.697 66.928,247.03C68.538,246.363 70.607,244.987 71.526,243.972C72.444,242.957 72.9,241.648 72.539,241.063C72.178,240.478 71.215,240 70.4,240C69.586,240 67.593,240.981 65.972,242.179C64.351,243.377 62.776,244.11 62.473,243.806C62.169,243.502 61.793,241.059 61.637,238.377C61.427,234.753 60.923,233.417 59.677,233.177C58.204,232.893 58.001,233.987 58.011,242.177C58.017,247.305 58.293,253.138 58.624,255.14C59.212,258.696 59.313,258.768 63.005,258.272C66.764,257.768 66.788,257.788 67.48,261.883C67.883,264.269 68.729,266 69.493,266C70.444,266 70.666,264.929 70.293,262.148C69.828,258.678 70.099,258.066 73.027,255.981C75.761,254.034 76.721,253.834 79.07,254.72C81.481,255.63 82.17,255.448 84.106,253.387C85.356,252.057 87.501,251 88.952,251C90.384,251 92.555,251.701 93.777,252.557C95.298,253.622 96,255.139 96,257.36C96,259.424 94.859,262.157 92.865,264.868C90.788,267.693 89.395,268.795 88.737,268.137C88.078,267.478 88.461,266.23 89.871,264.436C91.042,262.948 92,260.531 92,259.065C92,257.599 91.46,255.86 90.8,255.2C90.14,254.54 88.983,254 88.229,254C87.118,254 87.14,254.283 88.344,255.487C89.66,256.803 89.621,257.407 88.001,260.737C86.995,262.807 84.772,265.832 83.062,267.46C80.24,270.146 79.673,270.315 76.945,269.285C74.575,268.391 73.363,268.451 71.219,269.569C69.724,270.349 67.768,270.99 66.872,270.994C65.977,270.997 64.802,270.438 64.26,269.75C63.719,269.063 62.98,267.263 62.619,265.75C62.258,264.238 61.512,263 60.962,263C60.412,263 60.215,264.013 60.524,265.25C60.833,266.488 61.205,269.3 61.351,271.5C61.597,275.228 61.815,275.493 64.558,275.394C66.176,275.336 70.826,274.767 74.891,274.128C78.957,273.49 83.337,272.702 84.626,272.379C86.861,271.818 86.919,271.934 85.887,274.896C85.145,277.024 84.152,278 82.728,278C80.654,278 80.654,278.003 82.826,280.314C84.022,281.587 85,283.859 85,285.362C85,287.04 83.968,289.052 82.328,290.572C80.858,291.934 78.657,293.299 77.436,293.606C76.215,293.912 73.798,293.43 72.065,292.533C70.332,291.637 68.439,289.688 67.859,288.202C67.132,286.337 67.123,284.634 67.833,282.705C68.788,280.108 68.706,279.957 66.68,280.579C65.481,280.947 64.395,281.335 64.267,281.44C64.139,281.546 64.536,283.177 65.148,285.066C65.761,286.955 66.866,290.25 67.605,292.388C68.343,294.526 68.709,296.661 68.418,297.133C68.127,297.604 67.048,298.439 66.02,298.989L66.02,298.989ZM77.917,289C79.521,289 81.03,288.438 81.269,287.75C81.509,287.063 81.499,285.938 81.246,285.25C80.993,284.563 80.453,284 80.046,284C79.639,284 78.337,284.84 77.153,285.867C75.969,286.894 75,288.019 75,288.367C75,288.715 76.313,289 77.917,289ZM74.458,284.305C75.822,283.312 76.951,282.162 76.969,281.75C76.986,281.338 75.902,281 74.559,281C73.216,281 71.827,281.472 71.47,282.048C71.114,282.624 71.083,283.774 71.401,284.602C71.901,285.906 72.313,285.866 74.458,284.305L74.458,284.305ZM79.473,264.978C80.038,264.966 81.603,264.108 82.951,263.072C85.03,261.474 85.203,260.95 84.094,259.613C82.952,258.238 82.527,258.218 80.759,259.456C79.007,260.684 78.538,260.681 77.295,259.438C76.504,258.647 75.439,258 74.929,258C74.418,258 74,258.874 74,259.943C74,261.012 75,262.587 76.223,263.443C77.445,264.299 78.907,264.99 79.473,264.978ZM98.236,140C98.986,140 100.14,139.46 100.8,138.8C101.46,138.14 102,136.132 102,134.338C102,131.466 101.492,130.848 97.75,129.168C93.509,127.265 93.497,127.266 91.804,129.381C90.871,130.546 90.421,131.803 90.804,132.173C91.187,132.543 92.85,132.993 94.5,133.173C97.229,133.47 97.472,133.794 97.186,136.75C96.97,138.982 97.299,140 98.236,140ZM239.71,91.289C236.13,91.448 231.918,91.108 230.35,90.533C228.783,89.958 225.7,88.522 223.5,87.341C221.3,86.161 218.56,84.138 217.412,82.847C216.263,81.556 214.324,78.828 213.102,76.785C211.88,74.742 210.678,71.817 210.43,70.285C210.182,68.753 209.744,66.462 209.456,65.192C209.168,63.923 209.424,60.175 210.025,56.863C210.759,52.815 212.242,49.276 214.551,46.063C216.439,43.434 219.675,40.113 221.742,38.682C223.809,37.252 227.469,35.389 229.876,34.541C232.282,33.693 235.913,33 237.944,33C239.975,33 243.9,33.672 246.666,34.494C249.432,35.315 253.76,37.563 256.283,39.49C259.473,41.925 261.844,44.969 264.061,49.472C266.647,54.725 267.242,57.137 267.207,62.225C267.184,65.676 266.555,70.197 265.811,72.271C265.067,74.345 262.892,78.035 260.979,80.472C259.017,82.969 255.04,86.232 251.86,87.951C247.536,90.289 244.701,91.068 239.71,91.289ZM234.544,89C236.962,89 236.998,88.873 236.89,80.75C236.797,73.705 236.661,73.084 235.961,76.5C235.51,78.7 234.454,82.412 233.615,84.75L232.089,89L234.544,89ZM242,89C243.1,89 243.987,88.438 243.972,87.75C243.956,87.063 243.088,84.025 242.042,81L240.14,75.5L240.07,82.25C240.007,88.357 240.191,89 242,89ZM229.539,87.667C230.343,87.667 231.037,87.179 231.082,86.583C231.127,85.988 231.365,84.283 231.61,82.796C231.855,81.309 232.698,78.272 233.484,76.046C234.269,73.821 234.745,72 234.542,72C234.339,72 232.314,75.224 230.043,79.164C227.382,83.778 226.298,86.566 226.996,86.997C227.591,87.365 228.736,87.667 229.539,87.667ZM248.535,87.238L250.929,86.78L248.912,83.14C247.803,81.138 245.754,77.7 244.357,75.5C242.961,73.3 242.146,72.4 242.546,73.5C242.946,74.6 243.919,78.244 244.708,81.598C246.026,87.204 246.335,87.659 248.535,87.238ZM223.678,84.921C223.775,84.964 225.463,82.354 227.428,79.119C229.392,75.885 231,72.864 231,72.407C231,71.949 228.75,73.791 226,76.5C223.25,79.209 221,81.967 221,82.629C221,83.291 221.563,84.06 222.25,84.338C222.938,84.615 223.58,84.878 223.678,84.921ZM254.197,83.895C255.189,83.364 256,82.594 256,82.184C256,81.773 253.236,78.751 249.857,75.469L243.714,69.5L247.04,75.5C248.869,78.8 250.822,82.256 251.38,83.18C252.136,84.433 252.852,84.614 254.197,83.895ZM259.178,79.339C260.154,78.456 260.704,77.33 260.4,76.838C260.096,76.346 258.365,75.169 256.554,74.222C254.743,73.275 251.29,71.429 248.881,70.121L244.5,67.741L250.951,74.343C256.978,80.51 257.52,80.84 259.178,79.339ZM218.91,80C219.276,80 221.791,77.75 224.5,75C227.209,72.25 229.082,70 228.663,70C228.244,70 226.461,70.735 224.7,71.634C222.94,72.533 220.244,74.152 218.709,75.232C216.485,76.796 216.154,77.481 217.081,78.598C217.721,79.369 218.544,80 218.91,80ZM215.699,74C216.516,74 218.329,73.1 219.727,72C221.126,70.9 222.829,70 223.512,70C224.196,70 225.315,69.325 226,68.5C226.685,67.675 226.81,67 226.279,67C225.748,67 222.768,67.876 219.657,68.946C216.545,70.017 214,70.617 214,70.279C214,69.942 213.764,69.902 213.476,70.19C213.189,70.478 213.237,71.453 213.583,72.357C213.93,73.261 214.882,74 215.699,74ZM261.135,74C262.161,74 263,73.55 263,73C263,72.45 263.022,71.663 263.05,71.25C263.077,70.838 261.839,70.209 260.3,69.854C258.76,69.499 255.25,68.503 252.5,67.641L247.5,66.074L250,68.015C251.375,69.082 252.879,69.966 253.342,69.978C253.806,69.99 255.329,70.9 256.727,72C258.126,73.1 260.109,74 261.135,74ZM214.403,67.614C215.576,67.319 218.889,66.574 221.767,65.956C224.645,65.339 227,64.647 227,64.417C227,64.188 223.442,64 219.094,64C211.585,64 211.215,64.104 211.73,66.074C212.13,67.603 212.832,68.008 214.403,67.614ZM263.25,67.876C264.375,67.956 265,67.285 265,66C265,64.165 264.36,64.007 257.25,64.079C252.988,64.122 250.033,64.375 250.684,64.64C251.336,64.906 254.036,65.714 256.684,66.437C259.333,67.16 262.288,67.808 263.25,67.876ZM220.193,61.641C223.324,61.632 225.668,61.271 225.401,60.839C225.134,60.408 223.247,59.613 221.208,59.074C219.169,58.535 216.305,57.886 214.845,57.631C212.858,57.284 212.067,57.636 211.702,59.031C211.393,60.215 211.814,61.034 212.857,61.276C213.761,61.486 217.062,61.65 220.193,61.641ZM259.039,61.677C262.346,61.58 265.039,61.163 265.025,60.75C265.011,60.338 265,59.276 265,58.392C265,57.143 264.385,56.932 262.25,57.447C260.738,57.812 257.799,58.557 255.72,59.102C253.641,59.647 252.184,60.489 252.484,60.974C252.783,61.458 255.733,61.774 259.039,61.677L259.039,61.677ZM228.809,58.867C228.979,58.94 228.84,58.55 228.5,58C228.16,57.45 227.266,57 226.512,57C225.759,57 224.537,56.394 223.797,55.654C223.056,54.913 220.797,53.523 218.775,52.564C216.754,51.605 214.628,51.112 214.05,51.469C213.473,51.826 213,52.721 213,53.458C213,54.293 215.919,55.539 220.75,56.766C225.012,57.849 228.639,58.795 228.809,58.867ZM252,57.655C253.375,57.399 256.637,56.643 259.25,55.976C261.863,55.309 264,54.561 264,54.316C264,54.07 263.543,53.014 262.984,51.97C262.014,50.157 261.731,50.209 256.734,53.128C253.855,54.81 251.05,56.621 250.5,57.153C249.85,57.781 250.375,57.957 252,57.655ZM230.971,56.982C231.23,56.992 228.532,54.064 224.976,50.475C219.155,44.603 218.384,44.122 217.255,45.667C216.565,46.61 216.007,47.634 216.015,47.941C216.023,48.249 219.286,50.404 223.265,52.732C227.244,55.059 230.712,56.972 230.971,56.982ZM248.5,55.401C250.15,54.352 253.637,52.38 256.25,51.018C258.863,49.656 261,48.281 261,47.962C261,47.643 260.435,46.61 259.745,45.667C258.617,44.124 257.836,44.624 251.995,50.629C248.013,54.723 246.661,56.569 248.5,55.401ZM232.741,56C232.906,56 232.019,54.141 230.77,51.869C229.522,49.598 227.725,46.257 226.778,44.446C225.831,42.635 224.55,40.84 223.932,40.458C223.314,40.076 222.078,40.493 221.186,41.385C219.691,42.881 220.065,43.512 226.003,49.503C229.545,53.077 232.577,56 232.741,56ZM234.428,53C234.642,53 234.144,50.638 233.323,47.75C232.502,44.862 231.531,41.412 231.165,40.082C230.799,38.752 230.05,37.521 229.5,37.348C228.95,37.174 227.87,37.431 227.1,37.918C225.938,38.653 226.059,39.371 227.812,42.151C228.973,43.993 230.849,47.188 231.982,49.25C233.114,51.313 234.215,53 234.428,53ZM242.553,53C242.78,53 244.15,50.638 245.597,47.75C247.044,44.862 248.946,41.685 249.824,40.689C251.211,39.116 251.229,38.757 249.96,37.954C249.157,37.446 247.986,37.024 247.358,37.015C246.731,37.007 245.887,38.237 245.484,39.75C245.081,41.263 244.609,43.4 244.436,44.5C244.263,45.6 243.675,47.963 243.13,49.75C242.585,51.538 242.326,53 242.553,53ZM245.81,53C246.269,53 248.75,50.742 251.322,47.983C253.895,45.224 256,42.572 256,42.09C256,41.608 255.326,40.955 254.502,40.639C253.603,40.294 252.448,40.951 251.612,42.282C250.847,43.502 249.04,46.413 247.598,48.75C246.155,51.088 245.351,53 245.81,53ZM236.5,52C236.775,52 237,48.4 237,44C237,36.667 236.833,36 235,36C233.9,36 233,36.378 233,36.841C233,37.304 233.67,39.891 234.489,42.591C235.308,45.291 235.983,48.512 235.989,49.75C235.995,50.987 236.225,52 236.5,52ZM241.444,45.964C242.161,44.019 243.065,40.982 243.453,39.214C244.071,36.399 243.901,36 242.079,36C240.172,36 240.006,36.558 240.07,42.75C240.141,49.467 240.147,49.483 241.444,45.964ZM237.417,355.997C241.313,355.995 248.55,355.517 253.5,354.934C258.45,354.35 265.875,352.976 270,351.88C274.125,350.784 279.75,348.968 282.5,347.845C285.25,346.721 290.2,344.459 293.5,342.816C296.8,341.173 301.246,338.818 303.38,337.582C305.515,336.346 311.073,332.222 315.732,328.417C320.391,324.613 326.52,318.8 329.351,315.5C332.183,312.2 334.95,308.953 335.5,308.285C336.05,307.616 337.064,306.396 337.753,305.574C338.442,304.751 340.433,301.698 342.177,298.789C343.921,295.88 347.239,289.675 349.551,285C351.862,280.325 354.766,272.9 356.004,268.5C357.242,264.1 358.851,256.225 359.579,251C360.307,245.775 360.925,238.495 360.952,234.822C360.978,231.15 360.544,224.625 359.988,220.322C359.431,216.02 358.735,211.037 358.442,209.25C358.004,206.574 357.46,206 355.364,206C353.9,206 351.08,207.487 348.729,209.5C346.48,211.425 344.359,213 344.015,213C343.671,213 343.775,216.663 344.248,221.141C344.72,225.618 344.881,229.868 344.606,230.584C344.297,231.391 343.088,231.702 341.432,231.402C339.961,231.135 337.03,230.036 334.919,228.958C332.807,227.881 330.434,227 329.644,227C328.855,227 326.805,229.187 325.09,231.86C323.375,234.533 318.715,239.767 314.736,243.49C310.756,247.214 305.55,251.102 303.167,252.13C300.784,253.159 296.869,254 294.468,254C290.703,254 289.755,254.455 287.582,257.304C286.196,259.121 284.373,262.256 283.531,264.272C282.689,266.287 282,270.468 282,273.564C282,277.085 281.358,280.278 280.284,282.096C279.341,283.693 278.262,285 277.888,285C277.513,285 275.07,288.429 272.458,292.62C269.846,296.811 266.459,303.589 264.932,307.684C263.404,311.778 261.047,316.154 259.694,317.408C258.341,318.662 256.937,320.622 256.575,321.764C256.154,323.09 254.239,324.412 251.28,325.42C248.73,326.289 245.367,327 243.806,327C242.245,327 239.201,326.448 237.041,325.774C233.655,324.717 232.505,323.509 228.709,317.024C226.287,312.886 222.019,304.904 219.223,299.287C216.428,293.669 209.384,281.696 203.57,272.679C196.686,262.001 193,255.326 193,253.536C193,252.025 192.29,248.024 191.423,244.644C190.555,241.265 189.542,238.188 189.173,237.807C188.803,237.426 186.18,238.776 183.344,240.807C180.508,242.838 174.433,247.369 169.844,250.875C165.255,254.382 160.713,258.144 159.75,259.236C158.788,260.328 158,262.304 158,263.626C158,264.949 159.686,268.611 161.747,271.765C163.808,274.919 165.753,277.725 166.07,278C166.386,278.275 169.289,282.325 172.52,287C175.751,291.675 178.868,295.982 179.447,296.571C180.129,297.264 180.3,301.578 179.931,308.806C179.619,314.947 179.077,320.256 178.728,320.605C178.379,320.954 175.935,319.641 173.297,317.687C170.659,315.733 165.522,311.067 161.882,307.317C158.243,303.568 153.483,298.025 151.305,295C149.127,291.975 145.747,286.575 143.795,283C141.843,279.425 139.076,273.35 137.647,269.5C136.218,265.65 134.344,259.125 133.483,255C132.622,250.875 131.661,243.45 131.348,238.5C131.034,233.55 131.278,226.125 131.89,222C132.502,217.875 133.269,212.925 133.595,211C133.921,209.075 135.092,204.8 136.197,201.5C137.302,198.2 139.96,191.814 142.103,187.309C144.246,182.804 146,178.887 146,178.606C146,178.324 143.925,176.047 141.388,173.547C138.852,171.046 136.464,169 136.082,169C135.701,169 133.165,173.387 130.447,178.75C127.73,184.113 125.498,188.725 125.488,189C125.478,189.275 124.505,191.975 123.325,195C122.145,198.025 120.187,205.405 118.974,211.401C117.069,220.816 116.839,224.429 117.284,237.901C117.645,248.842 118.395,255.792 119.796,261.177C120.895,265.399 122.752,271.623 123.924,275.009C125.095,278.394 127.438,283.94 129.129,287.332C130.82,290.724 135.064,297.775 138.559,303C142.055,308.225 148.646,316.164 153.207,320.642C157.768,325.12 165.55,331.474 170.5,334.761C175.45,338.049 181.3,341.649 183.5,342.761C185.7,343.873 190.345,345.938 193.821,347.35C197.298,348.762 203.572,350.859 207.764,352.009C211.956,353.159 218.561,354.355 222.443,354.667C226.324,354.98 229.688,355.407 229.917,355.618C230.146,355.828 233.521,355.999 237.417,355.997ZM257.615,310.177C259.586,306.699 261.293,303.324 261.409,302.677C261.525,302.029 262.83,299.152 264.31,296.283L267,291.066L267,211.2C267,167.273 267.296,131.037 267.658,130.675C268.02,130.313 268.807,130.405 269.408,130.878C270.009,131.352 272.3,132.302 274.5,132.989C276.7,133.677 282.965,136.453 288.422,139.16C293.878,141.867 301.528,146.487 305.422,149.427C309.315,152.367 315.425,157.901 319,161.723C322.575,165.546 326.962,170.516 328.749,172.768C330.535,175.019 332.427,177.992 332.952,179.374C333.477,180.756 333.708,182.92 333.465,184.184C333.221,185.448 331.41,187.836 329.44,189.491C326.182,192.228 325.888,192.9 326.179,196.932C326.495,201.3 326.602,201.42 333.5,205.167C337.35,207.258 341.063,208.976 341.75,208.984C342.438,208.993 343.881,208.119 344.959,207.041C346.036,205.964 348.705,204.171 350.891,203.056C353.076,201.941 355.123,200.611 355.438,200.1C355.754,199.589 354.631,195.423 352.942,190.842C351.253,186.261 347.09,177.785 343.691,172.007C338.701,163.521 335.203,159.182 325.506,149.448C318.903,142.819 310.342,135.341 306.481,132.829C302.621,130.317 296.685,126.86 293.291,125.147C289.896,123.433 285.179,121.316 282.809,120.443C280.439,119.57 276.552,118.224 274.172,117.452C271.791,116.68 266.419,115.341 262.234,114.477C257.382,113.475 249.167,112.886 239.562,112.853C231.278,112.825 221.8,113.31 218.5,113.93C215.2,114.55 209.575,115.907 206,116.945C202.425,117.982 197.596,119.539 195.269,120.404C192.941,121.27 188.891,123.032 186.269,124.322C183.646,125.611 179.306,127.912 176.625,129.435C173.945,130.958 169.67,133.789 167.125,135.726C164.581,137.664 160.392,141.01 157.817,143.162C155.241,145.314 150.766,149.808 147.872,153.148C143.094,158.663 142.585,159.716 142.334,164.605C142.06,169.932 142.097,170.009 145.869,171.933L149.682,173.878L153.591,168.693C155.741,165.841 160.2,160.887 163.5,157.684C166.8,154.481 172.425,149.8 176,147.281C179.575,144.762 185.2,141.217 188.5,139.403C191.8,137.589 198.646,134.506 203.712,132.552C208.779,130.598 213.679,129 214.602,129C215.525,129 216.877,129.788 217.608,130.75C218.686,132.17 218.942,147.252 218.968,210.65L219,288.8L224.66,300.906C227.773,307.565 230.529,312.805 230.784,312.55C231.039,312.295 231.166,270.994 231.067,220.772C230.968,170.549 231.186,128.679 231.551,127.729C232.123,126.237 233.707,126 243.107,126L254,126L254.031,316.5L257.615,310.177L257.615,310.177ZM297.82,249.84C299.096,249.928 302.021,248.689 304.32,247.086C306.619,245.484 310.809,241.771 313.631,238.836C316.453,235.901 320.165,231.52 321.881,229.1C323.596,226.68 325,224.413 325,224.061C325,223.71 322.577,221.954 319.615,220.159C316.653,218.364 311.88,216.002 309.008,214.911C306.136,213.82 301.102,212.301 297.821,211.535C292.231,210.231 291.735,210.265 289.928,212.072C288.434,213.566 288.001,215.407 288.005,220.25C288.007,223.688 288.299,231.539 288.654,237.698L289.3,248.896L292.4,249.288C294.105,249.503 296.544,249.752 297.82,249.84ZM198.067,241.5C198.397,238.2 198.491,235.163 198.275,234.75C198.059,234.338 197.009,234 195.941,234C194.384,234 194,234.703 194,237.55C194,239.502 194.78,242.539 195.733,244.3L197.466,247.5L198.067,241.5ZM154.685,238C154.934,238 158.819,235.396 163.319,232.214C167.819,229.031 173.975,224.928 177,223.094C180.025,221.261 182.66,219.617 182.856,219.441C183.052,219.265 180.729,216.696 177.693,213.732C172.947,209.098 172.074,207.654 171.457,203.422C171.063,200.715 170.112,197.262 169.344,195.75C168.577,194.238 167.772,193 167.556,193C167.34,193 166.476,192.736 165.636,192.414C164.505,191.98 163.061,193.912 160.068,199.864C157.297,205.377 155.54,210.665 154.477,216.7C153.477,222.375 153.158,227.72 153.58,231.75C153.939,235.188 154.437,238 154.685,238ZM191.267,215.992C193.497,214.993 195.658,213.574 196.068,212.838C196.479,212.102 196.906,200.7 197.018,187.5C197.13,174.3 197.172,162.713 197.111,161.75C197.037,160.577 196.172,160 194.489,160C192.729,160 189.635,162.239 184.146,167.483C179.839,171.598 174.436,177.642 172.141,180.914C169.846,184.186 168.398,187.128 168.923,187.452C169.448,187.777 171.277,190.489 172.988,193.479C174.699,196.469 176.261,199.722 176.46,200.708C176.66,201.694 177.301,203.738 177.886,205.25C178.472,206.762 179.379,208 179.904,208C180.428,208 182.287,210.207 184.034,212.904L187.212,217.807L191.267,215.992L191.267,215.992ZM296.673,190.996C298.778,190.994 301.963,190.101 303.75,189.011C306.456,187.361 307,186.422 307,183.399C307,180.841 305.99,178.393 303.585,175.116C301.707,172.558 299.328,169.702 298.299,168.77C297.269,167.839 294.75,166.376 292.701,165.519C289.058,163.997 288.95,164.016 287.89,166.343C287.054,168.178 287.157,169.404 288.344,171.698C289.694,174.309 289.706,175.013 288.441,177.451C287.649,178.979 287,181.337 287,182.691C287,184.08 288.275,186.429 289.923,188.077C292.138,190.292 293.774,190.999 296.673,190.996L296.673,190.996Z" style="fill:rgb(6,6,235);fill-rule:nonzero;"/>
    </g>
</svg>
