<?xml version="1.0" encoding="UTF-8" standalone="no"?>
<!-- Created with Inkscape (http://www.inkscape.org/) -->

<svg
   xmlns:dc="http://purl.org/dc/elements/1.1/"
   xmlns:cc="http://creativecommons.org/ns#"
   xmlns:rdf="http://www.w3.org/1999/02/22-rdf-syntax-ns#"
   xmlns:svg="http://www.w3.org/2000/svg"
   xmlns="http://www.w3.org/2000/svg"
   version="1.1"
   width="480"
   height="480"
   id="svg2">
  <metadata
     id="metadata8">
    <rdf:RDF>
      <cc:Work
         rdf:about="">
        <dc:format>image/svg+xml</dc:format>
        <dc:type
           rdf:resource="http://purl.org/dc/dcmitype/StillImage" />
        <dc:title></dc:title>
      </cc:Work>
    </rdf:RDF>
  </metadata>
  <defs
     id="defs6" />
  <path
     d="m 237.12788,465.96015 c -173.832559,-0.0383 -180.767444,-0.10958 -184.337661,-1.89358 -2.040379,-1.01956 -5.415379,-2.88862 -7.5,-4.15348 -2.08462,-1.26486 -5.985923,-4.53713 -8.669561,-7.2717 -2.683638,-2.73457 -5.779776,-7.00753 -6.880307,-9.49547 -1.100531,-2.48793 -2.230975,-7.38894 -2.512098,-10.89114 -0.304163,-3.78922 0.0025,-8.0657 0.757404,-10.5612 0.697695,-2.30647 2.220788,-6.10178 3.384651,-8.43402 1.163863,-2.33224 4.369169,-6.68395 7.122903,-9.67047 C 41.246945,400.60257 46.65,396.09917 50.5,393.58154 l 7,-4.57752 13.75,-0.002 c 7.5625,-0.001 13.75,-0.26234 13.75,-0.58053 0,-0.31819 -4.404697,-5.38069 -9.788215,-11.25 C 69.828267,371.30217 63.656326,363.8 61.49636,360.5 c -2.159965,-3.3 -4.182535,-6.225 -4.4946,-6.5 -0.312065,-0.275 -1.982672,-2.75 -3.712461,-5.5 -1.729788,-2.75 -4.759707,-7.86844 -6.733153,-11.37432 -1.973446,-3.50587 -5.192024,-10.03087 -7.152396,-14.5 C 37.443379,318.15656 35.274609,313.15 34.584262,311.5 c -0.690348,-1.65 -1.826026,-4.575 -2.523729,-6.5 -0.697703,-1.925 -2.135493,-6.425 -3.195088,-10 -1.059596,-3.575 -3.329004,-13.025 -5.04313,-21 -3.05992,-14.23633 -3.116072,-14.99097 -3.08798,-41.5 0.02794,-26.36291 0.100936,-27.33034 3.093727,-41 1.685814,-7.7 3.739492,-16.475 4.56373,-19.5 0.824238,-3.025 2.602357,-8.425 3.951376,-12 1.349019,-3.575 3.263432,-8.525 4.254252,-11 0.990819,-2.475 4.01158,-8.775 6.7128,-14 2.701221,-5.225 5.648966,-10.85 6.550545,-12.5 0.901579,-1.65 3.438312,-5.7 5.637183,-9 C 57.69682,110.2 62.865728,103.225 66.984412,98 71.103096,92.775 77.844644,84.967056 81.96563,80.649013 86.086615,76.33097 93.742707,69.37505 98.979166,65.191412 104.21562,61.007775 108.725,57.316505 109,56.98859 c 0.275,-0.327915 4.775,-3.427991 10,-6.889058 5.225,-3.461068 15.8,-9.384511 23.5,-13.163208 7.7,-3.778697 16.025,-7.591466 18.5,-8.472819 2.475,-0.881354 7.2,-2.490028 10.5,-3.574832 3.3,-1.084805 11.4,-3.335092 18,-5.00064 6.6,-1.665547 18.075,-3.670886 25.5,-4.456309 7.425,-0.785423 18.675,-1.428042 25,-1.428042 6.325,0 17.575,0.642619 25,1.428042 7.425,0.785423 18.9,2.790762 25.5,4.456309 6.6,1.665548 14.7,3.915835 18,5.00064 3.3,1.084804 8.025,2.693478 10.5,3.574832 2.475,0.881353 10.8,4.694122 18.5,8.472819 7.7,3.778697 18.275,9.70214 23.5,13.163208 5.225,3.461067 9.725,6.561143 10,6.889058 0.275,0.327915 4.78438,4.019185 10.02083,8.202822 5.23646,4.183638 12.89255,11.139558 17.01354,15.457601 C 402.15536,84.967056 408.8969,92.775 413.01559,98 c 4.11868,5.225 9.28759,12.2 11.48646,15.5 2.19887,3.3 4.99586,7.8 6.21552,10 1.21966,2.2 4.41432,8.5 7.09924,14 2.68492,5.5 5.79538,12.25 6.91214,15 1.11675,2.75 2.9846,7.4837 4.15076,10.51933 1.16616,3.03563 2.12029,5.99734 2.12029,6.58159 0,0.58424 0.85425,3.95055 1.89833,7.48067 1.04409,3.53013 2.94466,11.81841 4.22351,18.41841 2.08561,10.76366 2.31639,14.67874 2.23989,38 -0.0825,25.14788 -0.18713,26.47522 -3.19296,40.5 -1.70922,7.975 -3.97462,17.425 -5.03421,21 -1.0596,3.575 -2.49739,8.075 -3.19509,10 -0.69771,1.925 -1.83338,4.85 -2.52373,6.5 -0.69035,1.65 -2.85912,6.65656 -4.81949,11.12568 -1.96037,4.46913 -5.17895,10.99413 -7.1524,14.5 -1.97344,3.50588 -5.00336,8.62432 -6.73315,11.37432 -1.72979,2.75 -3.4004,5.225 -3.71246,5.5 -0.31206,0.275 -2.33463,3.2 -4.4946,6.5 -2.15997,3.3 -8.33191,10.80217 -13.71542,16.67148 C 399.4047,383.04079 395,388.0581 395,388.32105 c 0,0.26296 5.7375,0.63579 12.75,0.82853 11.91954,0.3276 13.1271,0.54819 18.53958,3.38676 3.18427,1.66998 7.7504,4.59498 10.14696,6.5 2.39657,1.90501 5.73176,5.48866 7.41154,7.96366 1.67979,2.475 4.03873,7.53525 5.24209,11.24501 1.92767,5.94264 2.05491,7.40742 1.06963,12.31346 -0.61506,3.06265 -2.28128,7.9024 -3.70269,10.75499 -1.42142,2.8526 -4.91825,7.58371 -7.77075,10.51358 -2.8525,2.92987 -6.38123,5.95688 -7.84162,6.72668 -1.46039,0.76981 -3.30731,2.0517 -4.10425,2.84865 -0.79695,0.79695 -3.14454,2.15744 -5.21687,3.02331 -3.3823,1.41322 -22.25184,1.57024 -184.39574,1.53447 z M 188.39301,446 c 2.17149,0 3.61153,-0.56946 4,-1.58179 0.33385,-0.86998 0.61388,-5.03248 0.6223,-9.25 0.008,-4.21751 0.34592,-8.16324 0.75,-8.76827 0.40408,-0.60503 1.40969,-1.33172 2.23469,-1.61487 0.825,-0.28315 2.2875,-0.10979 3.25,0.38524 0.9625,0.49503 1.75,1.82575 1.75,2.95714 0,1.1314 -0.89009,3.18866 -1.97799,4.57169 -1.41986,1.80507 -1.71743,3.00145 -1.05459,4.23998 0.50786,0.94895 1.60656,2.29235 2.44154,2.98532 1.28687,1.06801 1.98073,0.53054 4.55459,-3.52802 1.67005,-2.63339 3.03645,-5.62946 3.03645,-6.65794 0,-1.02848 -0.50498,-2.85288 -1.12219,-4.05422 -0.6172,-1.20134 -2.27639,-3.42176 -3.68709,-4.93426 -1.91575,-2.054 -3.51286,-2.75 -6.31042,-2.75 -2.81182,0 -3.89704,-0.47737 -4.35331,-1.91496 -0.33428,-1.05322 -0.30455,-3.12315 0.0661,-4.59982 0.67029,-2.67067 0.71567,-2.68297 8.58263,-2.32571 5.40916,0.24564 8.18393,0.80436 8.77935,1.76777 0.47882,0.77473 1.19206,8.07531 1.58498,16.22351 0.42527,8.81899 1.19966,15.47853 1.91338,16.45461 0.82617,1.12986 1.89411,1.41908 3.43458,0.93015 2.21504,-0.70303 2.23274,-0.86548 1.92381,-17.66003 l -0.3118,-16.95048 2.91765,-0.75475 c 1.60471,-0.41511 3.40471,-1.5496 4,-2.52109 0.85496,-1.39525 0.67454,-2.06917 -0.85878,-3.20777 C 222.95004,402.24676 216.24402,402 185.3856,402 l -37.23215,0 -3.16306,2.66154 c -3.0139,2.53603 -3.14207,2.93696 -2.71784,8.50186 0.28018,3.67533 -0.005,6.4559 -0.76906,7.50094 -0.6965,0.95252 -1.8926,1.40032 -2.80506,1.05018 -1.31981,-0.50646 -1.49425,-1.76912 -1.02403,-7.41248 0.53725,-6.44784 0.4232,-6.94524 -2.19018,-9.55204 -1.60329,-1.59925 -3.85064,-2.74844 -5.37058,-2.74626 -1.4375,0.002 -4.10593,0.91356 -5.92984,2.02556 -2.42309,1.47731 -3.23104,2.6209 -3,4.24626 0.24416,1.71764 0.88578,2.15974 2.8162,1.94044 1.375,-0.15619 3.39978,-0.38119 4.49952,-0.5 1.42121,-0.15353 2.09643,0.46803 2.33463,2.14908 0.227,1.6021 -0.69545,3.42834 -2.85945,5.66102 l -3.19456,3.29596 2.74295,2.33897 c 1.50862,1.28643 3.3572,2.93272 4.10795,3.65842 0.98667,0.95375 1.08689,1.83908 0.3616,3.1943 -0.55187,1.03118 -1.43117,2.13924 -1.954,2.46237 -0.52283,0.32313 -2.47097,-0.0477 -4.32919,-0.82416 -2.18921,-0.91471 -4.33174,-3.0381 -6.08617,-6.03181 C 118.13411,423.07907 116.24554,421 115.42646,421 c -0.81908,0 -1.74113,0.65644 -2.04901,1.45876 -0.30788,0.80232 -0.0388,3.03724 0.59788,4.96649 0.63671,1.92926 2.71781,5.06789 4.62467,6.97475 1.90686,1.90686 5.06722,3.99513 7.02303,4.6406 1.9558,0.64548 4.93534,0.89773 6.62118,0.56056 1.68585,-0.33717 3.67056,-1.11546 4.41048,-1.72954 C 137.44529,437.21548 138,434.74394 138,431.87756 138,427.30577 138.16115,427 140.5706,427 c 2.56572,0 2.56972,0.0136 2.10304,7.18671 -0.25717,3.95269 -0.2408,7.77769 0.0364,8.5 0.27718,0.72231 1.73706,1.31329 3.24418,1.31329 l 2.74022,0 0.64824,-11.25 c 0.35654,-6.1875 0.65029,-13.8375 0.65279,-17 0.005,-5.72121 0.0196,-5.75 3.00455,-5.75 l 3,0 0,17.03138 c 0,14.84544 0.20997,17.11196 1.63592,17.65915 0.89976,0.34527 2.36226,0.16834 3.25,-0.39317 1.38294,-0.87474 1.61408,-3.47526 1.61408,-18.16015 l 0,-17.13921 11.25,0.001 c 9.21278,8.2e-4 11.25,0.26626 11.25,1.46582 0,0.80565 -0.87042,1.93065 -1.93426,2.5 -1.06384,0.56935 -3.35884,1.03518 -5.1,1.03518 -2.26692,0 -4.13107,0.96533 -6.56574,3.4 -3.17264,3.17264 -3.4,3.8368 -3.4,9.93191 0,6.0685 0.20605,6.67862 2.90437,8.6 1.5974,1.13745 3.86975,2.06809 5.04966,2.06809 1.17991,0 3.42907,-0.66387 4.99813,-1.47526 2.54189,-1.31446 2.91797,-1.30555 3.45034,0.0818 0.32863,0.85638 0.5975,3.32025 0.5975,5.47527 0,3.78775 0.11297,3.91821 3.39301,3.91821 z m -11.64942,-15 c -1.32564,0 -2.71026,-0.3 -3.07692,-0.66667 C 173.3,429.96667 173,428.41676 173,426.8891 c 0,-1.52767 1.07212,-4.02399 2.3825,-5.54739 2.12186,-2.46682 2.66208,-2.64243 4.93829,-1.60532 1.40569,0.64048 3.05595,2.09904 3.66724,3.24125 0.94164,1.75946 0.65726,2.53091 -1.86137,5.04955 C 180.47411,429.67974 178.08342,431 176.74359,431 z m 115.72123,15 c 0.80565,0 1.93065,-0.87042 2.5,-1.93426 0.5888,-1.10019 1.03518,-8.77569 1.03518,-17.8 0,-11.00669 0.36751,-16.23325 1.2,-17.06574 0.66,-0.66 1.6725,-1.19311 2.25,-1.18469 0.5775,0.008 1.725,0.44101 2.55,0.9613 1.20524,0.76009 1.59825,4.34336 2,18.23469 l 0.5,17.2887 2.55552,0.29766 c 1.83416,0.21363 2.89279,-0.35091 3.75038,-2 0.74499,-1.43256 1.28886,-8.31713 1.44449,-18.28499 0.23271,-14.90523 0.38051,-16.01248 2.18351,-16.35874 1.06365,-0.20428 2.52615,0.43853 3.25,1.42846 0.88596,1.21162 1.3161,5.15803 1.3161,12.07481 0,7.50555 0.44707,11.21246 1.65871,13.75329 0.91229,1.91309 2.88045,3.98441 4.3737,4.60293 1.49325,0.61853 4.23433,0.83542 6.09129,0.48198 1.85697,-0.35344 4.35164,-1.43903 5.54372,-2.41243 1.98739,-1.62282 2.19504,-2.85869 2.5,-14.87926 0.21057,-8.30012 0.76429,-13.5401 1.50936,-14.28336 0.68727,-0.68559 2.26039,-0.90195 3.78173,-0.52012 l 2.60495,0.6538 -0.67481,15.52138 c -0.51953,11.94963 -0.37288,16.08553 0.63725,17.97298 0.72163,1.34839 2.08092,2.45161 3.02063,2.45161 0.93972,0 2.17315,-0.5625 2.74096,-1.25 0.56975,-0.68984 1.26689,-8.86811 1.55569,-18.25 0.28781,-9.35 0.55334,-17.1125 0.59006,-17.25 C 354.96996,408.1125 355.9,408 357,408 c 1.92085,0 2,0.66667 2,16.84501 0,15.33134 0.17224,17.00089 1.91681,18.57971 1.55184,1.40439 2.32486,1.51631 4.05986,0.58777 2.0704,-1.10805 2.13645,-1.70528 1.94886,-17.62125 -0.17802,-15.10403 -0.0374,-16.59076 1.69015,-17.87421 1.49915,-1.11375 1.6593,-1.76957 0.78346,-3.20846 -0.60548,-0.99471 -2.40548,-1.95317 -4,-2.1299 -1.7584,-0.1949 -4.66978,-2.01438 -7.39914,-4.62411 -2.475,-2.36653 -6.56454,-5.48443 -9.08786,-6.92867 C 346.38882,390.18165 343.06694,389 341.53018,389 c -1.53676,0 -4.25242,0.90128 -6.03479,2.00285 -2.41259,1.49106 -3.40083,2.96037 -3.86741,5.75 -0.3447,2.06093 -1.0187,4.35436 -1.49778,5.09651 -0.70294,1.08893 -8.18195,1.37844 -38.75063,1.5 -37.52591,0.14923 -37.88234,0.17003 -38.17636,2.22695 -0.19266,1.34784 0.46409,2.41582 1.8719,3.044 2.09377,0.93427 2.17312,1.55298 2.29679,17.90926 0.11685,15.45403 0.28598,16.97204 1.92614,17.28858 0.98892,0.19085 2.45142,-0.19526 3.25,-0.85802 C 263.70576,441.99931 264,438.53751 264,425.87756 L 264,410 l 5.5,-0.1 c 3.025,-0.055 7.975,-0.1 11,-0.1 3.025,0 6.4,0.045 7.5,0.1 1.3,0.065 2,0.8 2,2.1 0,1.75415 -0.66667,2 -5.42327,2 -4.34214,0 -6.02231,0.50405 -8.42816,2.52844 -1.65268,1.39064 -3.75927,4.50379 -4.6813,6.9181 -1.42915,3.74217 -1.49001,4.95452 -0.4126,8.21912 0.69511,2.10619 2.57441,5.05371 4.17622,6.55002 1.60181,1.49631 4.40776,3.00111 6.23545,3.34398 1.89939,0.35633 4.27951,0.11154 5.55554,-0.57137 1.78158,-0.95347 2.40566,-0.92147 3.08998,0.15846 0.47163,0.74429 0.86441,2.14075 0.87283,3.10325 0.008,0.9625 0.67448,1.75 1.48013,1.75 z m 36.35092,-9.03041 c -0.17366,-0.0167 -1.10324,-0.48908 -2.06574,-1.04969 -1.51111,-0.88014 -1.75,-2.63941 -1.75,-12.8878 0,-6.52769 0.27314,-12.58033 0.60699,-13.45031 0.33384,-0.86999 1.59384,-1.58179 2.8,-1.58179 1.20615,0 2.73301,0.54 3.39301,1.2 0.80288,0.80288 1.2,5.25885 1.2,13.46482 0,11.1024 -0.18332,12.36292 -1.93426,13.3 -1.06384,0.56935 -2.07634,1.0215 -2.25,1.00477 z M 279.23984,435 c -0.46191,0 -1.37984,-0.54 -2.03984,-1.2 -0.66,-0.66 -1.2,-2.06938 -1.2,-3.13197 0,-1.06258 0.90509,-3.39642 2.0113,-5.18632 1.10622,-1.7899 3.01872,-3.52437 4.25,-3.85438 1.23129,-0.33001 3.03585,-0.60617 4.01014,-0.61368 0.97429,-0.008 2.23858,1.01161 2.80952,2.26469 0.70928,1.5567 0.71525,3.12746 0.0189,4.95912 -0.59325,1.56035 -2.69122,3.53376 -5.01969,4.72166 C 281.87988,434.0816 279.70175,435 279.23984,435 z M 347.75,403.96456 c -3.4375,-0.0195 -7.20788,-0.58198 -8.37863,-1.25 -1.62698,-0.92833 -1.94129,-1.71203 -1.33368,-3.32546 0.43722,-1.16099 1.56801,-2.40755 2.51287,-2.77013 0.94486,-0.36257 3.12002,-0.39247 4.83368,-0.0664 1.71367,0.32604 4.35326,1.66351 5.86576,2.97216 1.5125,1.30865 2.75,2.85095 2.75,3.42733 0,0.62262 -2.53675,1.03359 -6.25,1.01253 z m -102,40.9954 c 1.37667,0.0245 2.25,-0.55772 2.25,-1.50002 0,-0.84703 -1.8,-3.25235 -4,-5.34516 -2.2,-2.09281 -4,-4.30725 -4,-4.92099 0,-0.61373 0.84478,-1.92091 1.87728,-2.90483 1.0325,-0.98393 2.87818,-3.77306 4.1015,-6.19807 1.22331,-2.42501 2.31099,-6.47501 2.41706,-9 0.10607,-2.52499 -0.18339,-5.71589 -0.64322,-7.09089 -0.45984,-1.375 -1.98465,-3.34045 -3.38846,-4.36767 -2.01542,-1.47476 -3.21629,-1.67865 -5.70827,-0.96915 -2.13814,0.60876 -3.80087,2.09715 -5.15589,4.61532 -1.84322,3.42543 -1.87941,3.93255 -0.46166,6.46915 0.86351,1.54494 2.39889,2.75235 3.5,2.75235 1.4691,0 2.08721,-0.85888 2.46166,-3.42051 0.275,-1.88128 1.0459,-3.60075 1.71312,-3.82104 0.66721,-0.22029 1.52496,0.84194 1.9061,2.36052 0.47383,1.88792 0.0897,3.88683 -1.21468,6.32104 -1.70403,3.18 -2.36926,3.5775 -6.23239,3.72405 -2.50746,0.0951 -5.13308,0.8956 -6.24844,1.90498 -1.05804,0.95752 -1.92371,2.79619 -1.92371,4.08595 0,1.28975 0.45047,2.34501 1.00104,2.34501 0.55058,0 3.1285,2.73956 5.72873,6.08791 2.60023,3.34834 5.86226,6.70533 7.24896,7.45996 1.3867,0.75463 3.53377,1.39007 4.77127,1.41209 z m -135.08268,-72.3978 c 4.21438,-0.23251 8.95238,-1.20678 11.5,-2.36473 2.38297,-1.08311 6.08395,-3.70813 8.22438,-5.83337 2.14044,-2.12523 4.72794,-5.81387 5.75,-8.19697 1.04382,-2.43381 1.8583,-6.69074 1.8583,-9.71248 0,-2.95877 -0.90038,-7.78607 -2.00085,-10.72734 -1.10047,-2.94127 -3.63945,-8.02065 -5.64217,-11.28751 -2.00273,-3.26687 -4.28084,-7.16831 -5.06247,-8.66988 -0.78164,-1.50157 -1.84683,-2.9932 -2.36709,-3.31473 -0.52026,-0.32154 -3.83787,-6.51799 -7.37248,-13.76988 -3.5346,-7.2519 -7.16233,-15.21027 -8.06161,-17.68527 -0.89928,-2.475 -2.09249,-6.075 -2.65159,-8 -0.55909,-1.925 -1.68001,-5.75 -2.49094,-8.5 -0.81092,-2.75 -1.94054,-9.05 -2.510259,-14 -0.569723,-4.95 -0.817118,-15.525 -0.549767,-23.5 0.380487,-11.34983 1.060156,-16.67253 3.128456,-24.5 1.4533,-5.5 3.3514,-11.8 4.218,-14 0.86661,-2.2 2.53945,-6.25 3.71743,-9 1.17799,-2.75 4.09668,-8.6 6.48598,-13 2.3893,-4.4 6.42812,-11.15 8.97517,-15 2.54704,-3.85 6.60823,-9.46854 9.02487,-12.48564 2.41663,-3.01711 7.28183,-7.78698 10.81154,-10.59972 3.52971,-2.81274 7.63943,-5.74349 9.13272,-6.51276 1.49328,-0.76928 2.94369,-1.6998 3.22312,-2.06783 0.27943,-0.36803 3.42943,-2.34142 7,-4.38532 3.57057,-2.04389 9.41694,-5.17645 12.99194,-6.96124 3.575,-1.78479 9.425,-4.37759 13,-5.76178 3.575,-1.38419 9.65,-3.439936 13.5,-4.568321 3.85,-1.128385 8.35,-2.279587 10,-2.558226 1.65,-0.278639 6.81319,-0.977439 11.47377,-1.55289 C 230.63434,93.470823 237.4998,93 241.23035,93 c 3.73055,0 11.39235,0.687822 17.02623,1.528494 5.63388,0.840672 13.51873,2.442779 17.52188,3.560239 4.00316,1.117459 11.42816,3.777727 16.5,5.911697 5.07185,2.13398 11.86136,5.27006 15.08781,6.96907 3.22645,1.69901 10.87645,6.42573 17,10.50383 6.12355,4.0781 12.03373,8.22742 13.13373,9.2207 1.1,0.99328 4.05902,4.28097 6.5756,7.30597 2.51658,3.025 6.78999,8.875 9.49646,13 2.70648,4.125 5.68508,8.85 6.61912,10.5 0.93404,1.65 3.77916,7.24614 6.32249,12.43586 2.54333,5.18972 5.31371,11.26472 6.15638,13.5 0.84268,2.23528 2.86433,9.01414 4.49256,15.06414 2.77544,10.31266 2.96718,12.21847 3.06856,30.5 0.0991,17.87622 -0.10563,20.33271 -2.45908,29.5 -1.41197,5.5 -3.56067,12.7 -4.7749,16 -1.21422,3.3 -3.74111,9.375 -5.61529,13.5 -1.87419,4.125 -3.84782,8.175 -4.38584,9 -0.53802,0.825 -2.16461,3.75 -3.61465,6.5 -1.45003,2.75 -3.02904,5.15 -3.50892,5.33333 -0.47987,0.18334 -0.87249,0.77053 -0.87249,1.30487 0,0.53435 -1.75766,3.5598 -3.9059,6.72323 -2.14825,3.16344 -5.07325,8.52519 -6.5,11.915 -1.84599,4.38588 -2.5941,7.94284 -2.5941,12.33391 0,4.38714 0.65031,7.48291 2.25,10.71109 1.2375,2.49727 3.78153,6.03406 5.6534,7.85953 1.87187,1.82547 4.14437,3.31904 5.05,3.31904 0.90563,0 2.0741,0.42658 2.5966,0.94797 0.5225,0.52138 3.64174,1.3696 6.93165,1.88494 4.43179,0.6942 7.34787,0.58111 11.25452,-0.43644 2.90008,-0.75538 6.85534,-2.0346 8.78945,-2.84273 1.93412,-0.80813 6.12636,-3.47749 9.31608,-5.93193 3.18972,-2.45443 6.989,-6.02213 8.44283,-7.92821 1.45384,-1.90608 5.83293,-10.1544 9.73132,-18.3296 3.89838,-8.1752 7.5022,-15.764 8.00848,-16.864 0.50628,-1.1 1.87827,-4.475 3.04886,-7.5 1.17059,-3.025 3.21393,-8.65 4.54075,-12.5 1.32683,-3.85 3.57044,-11.275 4.98581,-16.5 1.41536,-5.225 2.73575,-10.625 2.9342,-12 0.19844,-1.375 1.26708,-7.73041 2.37475,-14.12313 1.63883,-9.45821 1.96054,-15.13911 1.72724,-30.5 -0.22336,-14.70589 -0.77492,-21.25079 -2.49621,-29.62066 -1.21523,-5.90909 -3.94989,-16.03409 -6.07703,-22.5 -2.12713,-6.46592 -6.16595,-16.48121 -8.97516,-22.25621 -2.8092,-5.775 -6.2458,-12.45606 -7.63689,-14.8468 -1.39108,-2.39074 -5.29591,-8.46574 -8.67739,-13.5 -3.38149,-5.03426 -6.71782,-9.72686 -7.41408,-10.428 -0.69626,-0.70115 -2.9607,-3.40115 -5.03208,-6 -2.07139,-2.59886 -7.10386,-8.45884 -11.18327,-13.022178 C 378.06442,87.639684 371.75071,81.815777 368.11336,79.261008 364.47601,76.706239 360.825,73.987031 360,73.218325 c -0.825,-0.768707 -6,-4.321072 -11.5,-7.894145 -5.5,-3.573073 -16.3,-9.5793 -24,-13.347171 -7.7,-3.767871 -16.7,-7.806433 -20,-8.974582 -3.3,-1.168149 -6.70698,-2.280231 -7.57108,-2.471292 -0.86409,-0.191062 -4.01409,-1.076273 -7,-1.967137 C 286.94302,37.673134 280.225,35.991067 275,34.82607 c -7.33667,-1.635827 -14.05439,-2.220304 -29.5,-2.566656 -18.36627,-0.411846 -21.21361,-0.232607 -34.85691,2.194221 -8.1713,1.453486 -20.93347,4.632146 -28.36037,7.063689 -7.42691,2.431544 -14.0163,4.811294 -14.64309,5.288335 -0.6268,0.47704 -3.83963,1.936435 -7.13963,3.243098 -3.3,1.306664 -11.00293,5.132179 -17.11763,8.501146 -6.11469,3.368966 -12.48416,7.098452 -14.15437,8.287745 C 127.55779,68.026942 125.80613,69 125.33541,69 c -0.47072,0 -1.97625,1.013138 -3.34563,2.251417 -1.36938,1.238279 -5.08265,4.016777 -8.25172,6.17444 C 110.569,79.583519 104.4062,84.982881 100.04297,89.42444 95.67973,93.865998 89.740782,100.65 86.845303,104.5 c -2.895478,3.85 -6.078259,7.88102 -7.072845,8.95782 -0.994587,1.0768 -3.702921,4.9018 -6.01852,8.5 -2.315599,3.5982 -4.497075,6.76718 -4.847725,7.04218 -0.350649,0.275 -1.658445,2.525 -2.906213,5 -1.247768,2.475 -2.566621,4.725 -2.930786,5 -0.364165,0.275 -2.502542,4.1 -4.75195,8.5 -2.249408,4.4 -5.456579,11.15 -7.127046,15 -1.670467,3.85 -4.60321,12.175 -6.517206,18.5 -1.913996,6.325 -3.732601,13.075 -4.041345,15 -0.308744,1.925 -1.30633,8.21446 -2.216858,13.97658 -1.273396,8.05846 -1.531341,14.40577 -1.117557,27.5 0.295872,9.36288 1.236906,20.84842 2.091188,25.52342 0.854282,4.675 2.295051,11.2 3.201708,14.5 0.906657,3.3 2.96571,10.05 4.575672,15 1.609962,4.95 3.329824,9.9 3.821916,11 0.492092,1.1 2.327275,5.375 4.078186,9.5 1.750911,4.125 5.228269,11.325 7.727463,16 2.499194,4.675 7.257764,13 10.5746,18.5 3.316836,5.5 7.853426,11.95885 10.081313,14.35299 2.227886,2.39415 5.357618,5.28672 6.954959,6.42794 1.597342,1.14122 5.197342,2.66033 8,3.3758 2.848933,0.72728 8.255953,1.12651 12.263063,0.90543 z m 300.00289,-70.15219 c -2.48424,0.58659 -2.75403,0.42947 -2.20932,-1.28673 0.34125,-1.07521 0.22993,-2.19629 -0.2474,-2.49129 -0.47732,-0.29501 -4.88313,-1.26947 -9.79068,-2.16548 -4.90754,-0.89601 -10.00554,-1.84372 -11.32887,-2.10601 -2.24115,-0.44421 -2.29236,-0.59061 -0.74719,-2.13578 0.91239,-0.91239 2.89511,-1.71687 4.40607,-1.78773 2.24735,-0.10541 2.68761,-0.53637 2.41979,-2.36865 -0.18006,-1.23189 0.49494,-3.16332 1.5,-4.29207 1.00507,-1.12874 3.27544,-2.66515 5.04527,-3.41425 1.76984,-0.74909 4.55245,-1.36198 6.18358,-1.36198 2.49193,0 3.01624,0.43931 3.28212,2.75 0.2132,1.85291 0.96885,2.84313 2.31642,3.03547 1.55757,0.22233 2.27652,-0.60375 3.25,-3.73425 0.6875,-2.21085 1.25,-4.62236 1.25,-5.35892 0,-0.94659 -3.53996,-1.86167 -12.07505,-3.12141 l -12.07505,-1.78221 2.07383,-2.2075 c 2.06763,-2.20089 2.10517,-2.20297 12.54414,-0.69676 5.75867,0.83091 10.64591,1.30933 10.86054,1.06316 0.21463,-0.24617 0.67814,-1.64931 1.03001,-3.11808 0.63089,-2.6334 0.55295,-2.67909 -5.60932,-3.28855 -3.43701,-0.33993 -8.4991,-0.78116 -11.2491,-0.98051 -2.75,-0.19936 -5.40724,-0.40701 -5.90499,-0.46145 -0.49774,-0.0545 -0.14745,-0.93606 0.77842,-1.95914 1.3386,-1.47913 1.47276,-2.4142 0.65499,-4.5651 C 396.46279,253.08703 396,250.41237 396,248.63107 c 0,-2.34589 0.89595,-4.10074 3.25,-6.36557 1.7875,-1.71976 5.61507,-4.30801 8.50571,-5.75166 2.89063,-1.44365 5.71507,-2.34092 6.27652,-1.99392 0.56144,0.34699 0.89638,1.36685 0.74429,2.26635 -0.20092,1.1883 0.74876,1.80817 3.47348,2.26717 2.0625,0.34745 3.77809,0.59006 3.81241,0.53914 0.0343,-0.0509 0.30607,-2.24978 0.60386,-4.88635 l 0.54143,-4.79377 -9.35385,0.59439 c -5.14462,0.32691 -10.81635,0.817 -12.60385,1.08908 -1.7875,0.27208 -3.25,0.91393 -3.25,1.42633 0,0.5124 -1.07735,1.63754 -2.39411,2.50032 -1.54651,1.01331 -3.33702,1.33202 -5.05742,0.90023 -1.46482,-0.36765 -3.35948,-1.73093 -4.21035,-3.02953 -1.43744,-2.1938 -1.36987,-2.66339 0.95378,-6.62839 1.37545,-2.34703 3.4191,-5.09836 4.54144,-6.11407 1.12235,-1.01571 2.43704,-1.60175 2.92155,-1.30231 0.4845,0.29944 2.04091,-0.21898 3.45868,-1.15204 1.41777,-0.93306 4.53721,-3.05168 6.9321,-4.70806 2.39488,-1.65637 5.40009,-3.15279 6.67824,-3.32538 1.67825,-0.22661 2.47859,0.27772 2.88065,1.8152 0.44249,1.69207 1.19692,2.06669 3.67609,1.82538 2.9874,-0.29077 3.11885,-0.49397 3.10761,-4.80361 -0.0101,-3.85768 -0.29553,-4.48432 -2,-4.39015 -1.09354,0.0604 -6.44146,0.63222 -11.88425,1.27067 -5.4428,0.63846 -10.09639,0.96044 -10.34131,0.71551 -0.24492,-0.24492 -0.16691,-1.32249 0.17337,-2.3946 0.48721,-1.53507 1.90105,-2.09438 6.65343,-2.63205 5.46536,-0.61833 6.0053,-0.88873 5.72262,-2.86585 -0.17884,-1.2509 -1.16613,-2.33566 -2.31212,-2.54038 -1.1,-0.1965 -2.42154,-0.75764 -2.93676,-1.24697 -0.57231,-0.54356 -0.0182,-1.86747 1.42432,-3.40294 1.29859,-1.38228 3.3773,-2.51324 4.61937,-2.51324 1.30121,0 2.46175,0.74167 2.73836,1.75 0.26404,0.9625 0.77181,3.47511 1.12838,5.58358 0.48716,2.88066 1.02635,3.68852 2.16911,3.25 0.83644,-0.32097 1.86158,-0.58358 2.27809,-0.58358 0.41651,0 -0.0319,-3.63661 -0.99648,-8.08135 -0.96457,-4.44475 -1.93446,-8.26205 -2.15531,-8.4829 -0.22085,-0.22085 -1.90455,0.0295 -3.74156,0.55636 -1.83701,0.52685 -5.18221,1.21873 -7.43377,1.53752 -2.25156,0.31879 -5.66875,1.00253 -7.59375,1.51942 -1.925,0.51689 -4.02037,0.94231 -4.65638,0.94537 -0.65841,0.003 -0.93485,-0.84157 -0.64194,-1.96166 0.28295,-1.08198 1.04773,-2.40982 1.69951,-2.95076 0.65179,-0.54093 2.96566,-1.1986 5.14194,-1.46147 2.17628,-0.26288 4.51937,-0.51004 5.20687,-0.54925 0.6875,-0.0392 1.25,-0.89628 1.25,-1.90461 0,-1.00834 -0.27587,-2.1092 -0.61303,-2.44637 -0.33717,-0.33717 -1.9354,0.36463 -3.55162,1.55955 -2.71971,2.01077 -3.13956,2.06015 -5.63697,0.66295 -1.48411,-0.8303 -2.84542,-2.53184 -3.02514,-3.7812 -0.18985,-1.31983 0.78074,-3.72356 2.31659,-5.73715 1.45384,-1.90608 3.76148,-4.19824 5.1281,-5.09368 1.74369,-1.14251 2.79958,-1.31326 3.54032,-0.57252 0.74074,0.74074 0.32402,1.53487 -1.39722,2.66267 -1.34903,0.88392 -2.94203,2.68092 -3.54001,3.99333 -0.59797,1.31242 -0.81733,2.65611 -0.48746,2.98598 0.32988,0.32987 1.34633,0.59977 2.25879,0.59977 0.91246,0 2.7159,-1.125 4.00765,-2.5 1.29175,-1.375 2.6786,-2.5 3.0819,-2.5 0.4033,0 1.30993,2.25 2.01474,5 0.9451,3.6876 1.7568,5 3.09241,5 0.99602,0 1.81095,-0.1366 1.81095,-0.30355 0,-0.16695 -1.60489,-5.00445 -3.56642,-10.75 -1.96153,-5.74555 -3.82067,-11.2594 -4.13142,-12.25301 -0.33653,-1.07603 -1.15598,-1.57977 -2.02648,-1.24573 -0.80382,0.30845 -2.51366,0.8249 -3.79966,1.14767 -1.892,0.47486 -2.78069,-0.0961 -4.6571,-2.99189 -1.27541,-1.9683 -3.14642,-3.5843 -4.15781,-3.59111 -1.62066,-0.0109 -1.53165,0.35276 0.75,3.06435 1.42389,1.69219 2.58889,3.52681 2.58889,4.07692 0,0.55011 -1.36133,2.36152 -3.02517,4.02536 -2.4502,2.4502 -3.54266,2.89529 -5.74795,2.3418 -1.49753,-0.37586 -2.87266,-0.83326 -3.05585,-1.01645 -0.18319,-0.18319 0.18468,-1.30049 0.81748,-2.4829 0.92537,-1.72907 1.7241,-2.02385 4.08102,-1.50619 1.99019,0.43712 2.93047,0.25244 2.93047,-0.57557 0,-0.67057 -0.7875,-1.81701 -1.75,-2.54765 -0.9625,-0.73065 -2.8975,-1.34275 -4.3,-1.36025 -1.4025,-0.0175 -3.09,0.5082 -3.75,1.1682 -0.66,0.66 -1.2,2.02583 -1.2,3.03518 0,1.00935 0.68154,2.87535 1.51454,4.14666 1.38712,2.11701 1.33894,2.53471 -0.57258,4.96482 -1.35548,1.72321 -3.05222,2.65334 -4.84023,2.65334 -1.65085,0 -3.70269,-1.01079 -5.1249,-2.52467 -1.56306,-1.6638 -2.33494,-3.62445 -2.2637,-5.75 0.0595,-1.77393 0.58719,-4.46283 1.17274,-5.97533 0.58555,-1.5125 1.73963,-2.75 2.56463,-2.75 1.19695,0 1.30297,0.51823 0.52475,2.5651 -0.53639,1.4108 -0.97525,3.69295 -0.97525,5.07143 0,1.37848 0.64286,3.14918 1.42857,3.9349 0.78572,0.78571 2.47322,1.39811 3.75,1.36089 2.28646,-0.0667 2.28982,-0.083 0.2234,-1.08501 -1.92445,-0.93315 -2.02125,-1.44466 -1.16997,-6.18232 0.51044,-2.84074 1.8705,-6.17749 3.02235,-7.41499 1.32164,-1.41991 3.26404,-2.25 5.26498,-2.25 1.92514,0 3.89854,-0.80426 5.02351,-2.04733 1.14591,-1.26623 2.8142,-1.9339 4.37268,-1.75 1.52791,0.18028 3.38744,1.5891 4.72372,3.57879 1.27982,1.90561 2.47934,2.8357 2.86091,2.21829 0.36139,-0.58473 -0.67413,-3.41139 -2.30115,-6.28145 -2.33912,-4.12622 -3.41428,-5.15074 -5.13741,-4.89548 -1.19855,0.17755 -6.02253,2.09005 -10.71996,4.25 C 378.64421,144.23277 374.39567,146 373.90043,146 373.40519,146 373,145.1551 373,144.12244 c 0,-1.03265 0.67398,-2.4369 1.49773,-3.12056 1.3015,-1.08015 1.10497,-1.69035 -1.5,-4.65724 C 371.34898,134.46681 370,132.08059 370,131.04193 c 0,-1.03866 1.20575,-3.32143 2.67943,-5.07281 2.39219,-2.84294 3.10539,-3.12719 6.65259,-2.65141 2.33876,0.31369 4.97897,1.53873 6.41828,2.97805 1.34483,1.34482 2.51367,3.62812 2.59742,5.07398 0.0838,1.44587 0.68822,2.62917 1.34326,2.62955 0.65504,3.9e-4 1.47433,-0.45775 1.82064,-1.01809 0.34631,-0.56034 -1.42714,-3.75492 -3.94099,-7.09908 C 385.05679,122.53796 383,119.22652 383,118.52336 c 0,-0.70316 0.61706,-1.79058 1.37124,-2.4165 1.08691,-0.90205 2.031,-0.25354 4.55301,3.12755 1.74997,2.34608 5.28868,7.19059 7.86381,10.76559 2.57512,3.575 6.60126,9.83931 8.94699,13.92069 2.34572,4.08138 4.26495,7.70388 4.26495,8.05 0,0.34612 0.48658,1.11589 1.08129,1.7106 0.59471,0.59471 3.32682,7.77221 6.07135,15.95 2.74454,8.17779 5.14195,15.99371 5.32758,17.36871 0.18563,1.375 1.26505,6.325 2.3987,11 1.13365,4.675 2.4756,14.125 2.98212,21 0.50651,6.875 0.56082,15.2 0.12067,18.5 -0.44014,3.3 -1.35472,10.5 -2.03239,16 -0.67767,5.5 -1.58992,10.96664 -2.02722,12.14809 -0.43731,1.18144 -1.06842,3.98061 -1.40248,6.22037 -0.33406,2.23976 -1.67377,7.57312 -2.97713,11.85192 -1.30336,4.27879 -3.06365,9.69212 -3.91176,12.02962 -0.84811,2.3375 -1.24697,4.25 -0.88637,4.25 0.3606,0 0.22814,0.3919 -0.29436,0.87089 -0.5225,0.47899 -2.22341,1.17158 -3.77979,1.53908 z m 0.0798,-10.21713 c 0.6875,-0.8663 1.25,-2.10292 1.25,-2.74803 0,-0.709 -1.48325,-1.12782 -3.75,-1.05887 -3.40551,0.10358 -3.83789,-0.1845 -4.7068,-3.13594 -0.52623,-1.7875 -1.25863,-3.25 -1.62755,-3.25 -0.36892,0 -1.23839,0.68395 -1.93216,1.51989 -0.89957,1.08391 -0.99747,2.44646 -0.34131,4.75 0.78005,2.73849 1.60025,3.4027 5.38896,4.36408 3.78827,0.96128 4.65923,0.8941 5.71886,-0.44113 z M 417.86172,258 c 1.56897,0 2.03337,-1.00473 2.6146,-5.65677 0.38872,-3.11123 0.93872,-6.26123 1.22221,-7 C 422.08738,244.32991 420.99276,244 417.24185,244 c -3.53448,0 -5.7429,-0.60628 -7.63784,-2.09684 -2.25016,-1.76998 -2.93369,-1.89455 -4.38486,-0.79909 -0.94553,0.71377 -2.28165,1.96836 -2.96915,2.78798 -0.6875,0.81961 -1.25,3.15435 -1.25,5.1883 0,2.29184 0.77878,4.5958 2.04802,6.05887 l 2.04803,2.36078 -0.6146,-3.19135 c -0.33803,-1.75524 -0.13809,-4.0817 0.4443,-5.16991 0.58239,-1.08821 2.61246,-2.49129 4.51126,-3.11795 2.84698,-0.93959 3.88375,-0.85672 5.91248,0.47255 1.35306,0.88656 2.74849,2.76089 3.10094,4.16518 0.40132,1.599 0.0545,3.44804 -0.92785,4.94737 -1.46577,2.23704 -1.44352,2.39411 0.33914,2.39411 z m -6.93885,-1 c 0.45773,0 1.3745,-0.65338 2.03726,-1.45196 0.66276,-0.79858 1.05536,-2.21285 0.87245,-3.14282 -0.18292,-0.92997 -1.0985,-2.17317 -2.03462,-2.76267 -0.93612,-0.58949 -2.00263,-0.77121 -2.37003,-0.40381 -0.36741,0.3674 -0.3686,2.26399 -0.003,4.21463 0.36595,1.95065 1.03987,3.54663 1.4976,3.54663 z m -17.39982,-23 c 0.81232,0 1.47695,-0.42764 1.47695,-0.95031 0,-0.52267 -0.69198,-1.33756 -1.53773,-1.81087 -1.32804,-0.7432 -1.24754,-1.12318 0.59032,-2.78641 2.05823,-1.86267 2.17203,-1.8657 3.46878,-0.0923 1.28803,1.76149 1.39221,1.75114 2.65023,-0.26327 0.90958,-1.45648 2.34053,-2.09684 4.68558,-2.09684 2.84614,0 3.29664,-0.30379 2.86999,-1.93531 -0.27835,-1.06442 0.0842,-2.77802 0.8056,-3.80802 1.12191,-1.60174 1.04614,-2.03855 -0.52368,-3.01892 -1.50633,-0.94072 -2.52463,-0.64692 -5.67995,1.63878 -2.11451,1.53175 -4.43576,2.58793 -5.15834,2.34707 -0.72257,-0.24086 -2.44792,0.6228 -3.8341,1.91924 -1.38619,1.29644 -2.96101,3.17484 -3.49959,4.17422 -0.70406,1.30641 -0.53126,2.50078 0.61487,4.25 0.87677,1.33812 2.25875,2.43294 3.07107,2.43294 z m 24.29034,-8.72779 c 2.02763,-0.31981 4.01722,-1.07439 4.4213,-1.67684 0.40408,-0.60246 0.73468,-1.32037 0.73468,-1.59537 0,-0.275 -0.40315,-1.13692 -0.8959,-1.91537 -0.54247,-0.857 -2.36752,-1.36004 -4.62623,-1.27513 -2.05167,0.0771 -3.93444,0.34437 -4.18394,0.59386 -0.24949,0.2495 -0.15727,1.80289 0.20493,3.45198 0.61848,2.81593 0.88283,2.96297 4.34516,2.41687 z M 381.41793,135 c 1.35522,0 2.76884,-0.49318 3.14138,-1.09596 0.37254,-0.60278 0.0185,-1.75477 -0.78668,-2.55998 -1.28535,-1.28535 -1.66871,-1.15161 -3.14137,1.09596 -1.6432,2.50784 -1.62718,2.55998 0.78667,2.55998 z m -5.54549,-2.03142 c 0.34516,-0.0173 1.43607,-1.14229 2.42424,-2.5 1.77145,-2.4339 1.76372,-2.46858 -0.55,-2.46858 -1.29067,0 -2.87597,0.52929 -3.52289,1.17621 -0.85892,0.85892 -0.87984,1.5333 -0.0776,2.5 0.60426,0.72808 1.38105,1.30965 1.7262,1.29237 z M 66.020261,298.98916 c -1.692209,0.90564 -2.17433,0.0341 -5.11387,-9.24463 C 59.121357,284.11004 57.533585,279.05 57.378009,278.5 c -0.155575,-0.55 -1.232801,-5.95 -2.393835,-12 -1.893541,-9.867 -2.058931,-13.42049 -1.605733,-34.5 0.27788,-12.925 0.722516,-25.23112 0.98808,-27.34694 0.433857,-3.45664 0.280656,-3.79406 -1.510023,-3.32578 -1.096077,0.28663 -3.314897,0.0603 -4.930711,-0.503 -1.806808,-0.62985 -3.171628,-1.95561 -3.545095,-3.44362 -0.333988,-1.33071 -0.02995,-3.81322 0.675645,-5.51667 0.705593,-1.70345 3.074086,-4.39472 5.263318,-5.98059 C 52.508887,184.29753 54.90756,183 55.650038,183 56.392517,183 57,183.23875 57,183.53055 c 0,0.2918 -1.553472,1.89452 -3.452159,3.56159 -1.898688,1.66707 -3.735867,3.92492 -4.082619,5.01744 -0.346752,1.09252 -0.08818,2.6398 0.574604,3.43841 0.662785,0.7986 2.212257,1.45201 3.443272,1.45201 1.829574,0 2.531254,-0.9585 3.843299,-5.25 0.8828,-2.8875 2.714249,-8.90557 4.069886,-13.37348 1.355638,-4.46792 4.232124,-11.89292 6.392193,-16.5 2.160068,-4.60709 4.206996,-9.50152 4.548729,-10.87652 0.341732,-1.375 1.621767,-4.075 2.844522,-6 1.222755,-1.925 2.244584,-3.77056 2.270732,-4.10124 0.02615,-0.33068 3.587515,-5.39318 7.914149,-11.25 C 92.200463,120.398 93.611758,119 96.116608,119 97.702474,119 99,119.42344 99,119.94098 c 0,0.51754 -0.45,1.2191 -1,1.55902 -0.55,0.33992 -1,1.01115 -1,1.49163 0,0.48048 0.908644,1.16199 2.01921,1.51447 1.11057,0.35248 5.94322,2.45377 10.73923,4.66953 l 8.72002,4.02866 -2.98923,1.25866 c -1.91231,0.80521 -3.6231,0.93405 -4.74868,0.35762 -1.36631,-0.69972 -1.95514,-0.38931 -2.63524,1.38919 -0.48168,1.25963 -1.79373,3.11699 -2.91566,4.12746 -1.43224,1.28995 -3.62605,1.84338 -7.364765,1.85793 -2.928687,0.0114 -5.809448,-0.0279 -6.401692,-0.0872 -0.605048,-0.0607 -0.89152,-1.37038 -0.653881,-2.98951 0.232609,-1.58487 -0.09868,-3.20395 -0.736207,-3.59796 -0.637522,-0.39401 -2.076846,0.11414 -3.198497,1.12922 -1.121652,1.01508 -2.701477,3.12598 -3.510724,4.69089 -0.809246,1.56491 -1.325675,2.98368 -1.14762,3.15282 0.178055,0.16914 4.148736,1.73109 8.823736,3.47101 4.675,1.73991 9.53787,3.58662 10.80639,4.10379 1.26851,0.51718 2.06266,1.33467 1.76478,1.81666 -0.29789,0.48199 -1.78562,1.11415 -3.30607,1.4048 -1.520451,0.29066 -4.5646,-0.13015 -6.764778,-0.93513 -2.200177,-0.80497 -6.331059,-2.30388 -9.179739,-3.33091 l -5.179416,-1.86732 -1.010975,2.90009 c -1.00975,2.89657 -1.003471,2.90237 5.179416,4.78668 3.404716,1.03763 8.552892,2.44231 11.440392,3.12151 2.8875,0.6792 5.25,1.58543 5.25,2.01385 0,0.42842 -1.322839,1.32688 -2.939643,1.99658 -1.616804,0.6697 -3.335836,0.97278 -3.820073,0.6735 -0.484236,-0.29927 -2.090256,-0.76351 -3.568933,-1.03165 -1.478678,-0.26814 -3.525293,-0.75311 -4.548034,-1.07771 -1.406235,-0.44632 -2.174349,0.16985 -3.151,2.52769 -1.080819,2.60933 -1.061555,3.27438 0.118106,4.0773 0.775267,0.52768 3.997077,0.71802 7.159577,0.42297 4.400059,-0.41049 5.75,-0.22258 5.75,0.8004 0,0.86407 -2.231399,1.7066 -6.309651,2.38239 -3.470308,0.57505 -7.557058,0.80708 -9.081668,0.51564 -1.657757,-0.3169 -3.224848,-1.52376 -3.898553,-3.00238 -0.906008,-1.98848 -0.787726,-3.06282 0.60423,-5.48817 1.357831,-2.36588 1.474722,-3.3242 0.542483,-4.44748 -0.997003,-1.20131 -1.498782,-0.94139 -3.117201,1.61473 -1.060905,1.67558 -2.954805,5.98243 -4.208667,9.57076 -1.253863,3.58833 -1.998775,6.68794 -1.655361,6.88803 0.343413,0.20008 2.052173,0.66983 3.797242,1.04389 l 3.172855,0.68011 -1.422855,3.40537 C 72.640285,185.40335 72,187.40022 72,187.96788 72,188.53555 72.61875,189 73.375,189 c 0.799548,0 1.375,-1.04499 1.375,-2.49692 0,-1.37331 0.55867,-3.17008 1.241488,-3.99282 0.682819,-0.82275 3.026289,-1.9765 5.207711,-2.5639 3.230109,-0.86978 4.414861,-0.77403 6.383512,0.51588 C 88.91222,181.33337 90,182.65827 90,183.40648 c 0,0.7482 -1.225398,1.59462 -2.723106,1.88092 -1.95091,0.37294 -3.101277,-0.0194 -4.056704,-1.38342 C 82.486711,182.85679 81.462109,182 80.943296,182 80.424483,182 80,183.3645 80,185.03222 c 0,2.19342 0.597272,3.25317 2.159077,3.83092 1.187492,0.43928 3.211824,0.59745 4.498514,0.35149 1.286691,-0.24597 3.695753,-1.99197 5.353472,-3.88001 2.452736,-2.79351 3.129445,-3.13204 3.633767,-1.8178 0.399579,1.04129 -0.571709,2.84426 -2.734163,5.07535 -1.844644,1.90319 -5.11083,3.98673 -7.258192,4.6301 -3.284114,0.98394 -4.364456,0.90566 -6.801191,-0.49284 -2.143398,-1.23014 -3.541227,-1.41761 -5.37409,-0.72076 -1.577719,0.59985 -3.426013,0.58109 -5.090283,-0.0517 -2.006764,-0.76297 -2.500671,-1.51133 -2.128596,-3.22525 0.266471,-1.22746 0.815506,-3.01925 1.220078,-3.98175 0.432434,-1.02879 0.298655,-1.75 -0.32461,-1.75 -0.583107,0 -1.981252,2.0822 -3.106989,4.62712 C 62.921057,190.17203 62,193.26825 62,194.50761 c 0,2.13339 0.614657,2.32188 11.544317,3.54008 6.349374,0.70769 11.763713,1.6417 12.031865,2.07558 0.268152,0.43387 -0.62605,1.51852 -1.987116,2.41033 -2.201841,1.4427 -3.536901,1.48249 -12.109726,0.36089 -8.243405,-1.07849 -9.766039,-1.05358 -10.541887,0.17247 -0.498755,0.78817 -0.913718,1.93047 -0.92214,2.53844 -0.0088,0.63766 2.840856,1.37514 6.734687,1.74289 3.7125,0.35062 9.085942,0.64069 11.940983,0.6446 2.855041,0.004 5.431929,0.39697 5.726419,0.87346 0.294489,0.4765 -0.324775,1.64484 -1.376144,2.59631 -1.451447,1.31354 -3.251408,1.6466 -7.477782,1.38365 -3.776601,-0.23497 -5.565764,0.0293 -5.564839,0.8219 7.49e-4,0.64252 -0.271782,1.88002 -0.605626,2.75 C 68.953371,217.5639 69.3899,218 70.976345,218 c 1.292414,0 2.031348,0.51243 1.802528,1.25 -0.213286,0.6875 -2.041201,2.06998 -4.062033,3.07218 -2.020831,1.0022 -4.160803,1.52147 -4.755493,1.15393 C 63.26159,223.04364 63.118315,220.9012 63.55527,217.40393 64.180655,212.39852 64.078809,212 62.17424,212 c -1.130913,0 -2.249619,0.3375 -2.486014,0.75 -0.236394,0.4125 -0.7402,4.0125 -1.119568,8 l -0.689762,7.25 12.682524,0 12.682524,0 -1.489201,2.25 c -1.254359,1.89518 -2.535163,2.29663 -8.121972,2.54569 C 67.31824,233.07719 67,233.21037 67,235.57137 c 0,2.36583 0.126589,2.41789 2.75,1.13089 1.5125,-0.742 3.65,-1.15513 4.75,-0.91807 1.1,0.23707 2.55253,0.87943 3.227845,1.42748 0.675315,0.54804 1.085904,1.92653 0.912421,3.0633 -0.173484,1.13677 -1.588514,3.33994 -3.144512,4.89594 C 73.939756,246.72691 72.04432,248 71.283673,248 c -0.760646,0 -2.710646,0.68656 -4.333333,1.52568 C 64.474708,250.80588 64,250.8254 64,249.647 c 0,-0.7724 1.317468,-1.95007 2.927706,-2.61705 1.610238,-0.66699 3.679321,-2.04323 4.597961,-3.05831 0.918641,-1.01509 1.374615,-2.32397 1.013277,-2.90863 C 72.177606,240.47836 71.215302,240 70.40049,240 c -0.814811,0 -2.807719,0.98053 -4.428684,2.17897 -1.620964,1.19843 -3.1956,1.93057 -3.499189,1.62698 -0.30359,-0.30359 -0.679458,-2.74662 -0.835263,-5.42897 -0.210495,-3.62386 -0.714189,-4.96006 -1.960318,-5.2003 -1.473197,-0.28403 -1.675698,0.8099 -1.66603,9 0.0061,5.12782 0.281877,10.96118 0.612942,12.96301 0.588133,3.55624 0.688603,3.62808 4.381292,3.13278 3.758973,-0.50418 3.783106,-0.48471 4.474955,3.61031 0.403215,2.3866 1.24916,4.11722 2.012546,4.11722 0.950771,0 1.173279,-1.07112 0.80025,-3.85226 -0.465428,-3.47002 -0.19416,-4.08193 2.733881,-6.16687 2.733883,-1.9467 3.694512,-2.14705 6.043412,-1.26044 2.410852,0.90999 3.099583,0.72766 5.03559,-1.33313 C 85.355963,252.05664 87.50082,251 88.951808,251 c 1.431749,0 3.603307,0.70052 4.825686,1.5567 1.520567,1.06505 2.222506,2.58199 2.222506,4.803 0,2.06478 -1.140865,4.79763 -3.134604,7.50869 -2.077283,2.82467 -3.469911,3.9271 -4.12868,3.26833 -0.658769,-0.65877 -0.27606,-1.90689 1.134604,-3.70026 C 91.042094,262.94806 92,260.53097 92,259.06514 92,257.59931 91.46,255.86 90.8,255.2 90.14,254.54 88.982857,254 88.228571,254 c -1.110101,0 -1.088084,0.28334 0.115545,1.48697 1.315964,1.31597 1.276527,1.91974 -0.342922,5.25 -1.006442,2.06967 -3.229269,5.0951 -4.939615,6.72318 -2.821678,2.68597 -3.388217,2.85503 -6.1164,1.82526 -2.370283,-0.89468 -3.58224,-0.83464 -5.72593,0.28369 -1.495587,0.78022 -3.451649,1.42135 -4.346804,1.42474 -0.895156,0.003 -2.070606,-0.55634 -2.612113,-1.24384 -0.541506,-0.6875 -1.28018,-2.4875 -1.641497,-4 -0.361316,-1.5125 -1.106939,-2.75 -1.656939,-2.75 -0.55,0 -0.747007,1.0125 -0.437793,2.25 0.309213,1.2375 0.68117,4.05 0.82657,6.25 0.2464,3.72822 0.46429,3.99283 3.206845,3.89448 1.618365,-0.058 6.268638,-0.62795 10.333941,-1.26646 4.065302,-0.63851 8.445785,-1.42554 9.734407,-1.74897 2.235042,-0.56096 2.293105,-0.44506 1.260716,2.51646 C 85.144587,277.024 84.151535,278 82.727861,278 c -2.073807,0 -2.073681,0.003 0.09783,2.31445 C 84.021559,281.5874 85,283.85889 85,285.3622 c 0,1.67794 -1.031714,3.68946 -2.672063,5.20968 -1.469634,1.36201 -3.671167,2.72715 -4.892296,3.03363 -1.221128,0.30648 -3.638032,-0.17593 -5.370898,-1.07203 -1.732866,-0.8961 -3.625257,-2.84522 -4.205315,-4.33138 -0.727797,-1.86468 -0.736112,-3.56839 -0.02683,-5.49734 0.954929,-2.597 0.873202,-2.74776 -1.152389,-2.12577 -1.199116,0.36821 -2.284885,0.75574 -2.412821,0.86118 -0.127935,0.10544 0.268516,1.73704 0.881003,3.62577 0.612487,1.88873 1.717848,5.18364 2.456359,7.32203 0.738511,2.13838 1.104497,4.27346 0.813304,4.74462 -0.291194,0.47116 -1.370201,1.30662 -2.397795,1.85657 z M 77.916667,289 c 1.604166,0 3.112878,-0.5625 3.352692,-1.25 0.239814,-0.6875 0.229169,-1.8125 -0.02365,-2.5 -0.252825,-0.6875 -0.792682,-1.25 -1.199683,-1.25 -0.407001,0 -1.708856,0.84028 -2.893011,1.8673 C 75.968854,286.89431 75,288.01931 75,288.3673 75,288.71528 76.3125,289 77.916667,289 z m -3.458538,-4.69544 c 1.363462,-0.99251 2.493162,-2.14206 2.510446,-2.55456 0.01728,-0.4125 -1.067017,-0.75 -2.409558,-0.75 -1.342541,0 -2.732416,0.47155 -3.088613,1.04789 -0.356196,0.57633 -0.387455,1.72589 -0.06946,2.55456 0.500256,1.30365 0.912222,1.26351 3.057188,-0.29789 z m 5.014377,-19.3268 c 0.565122,-0.0122 2.130313,-0.86979 3.478203,-1.90569 2.078921,-1.59773 2.252293,-2.12254 1.142807,-3.45939 -1.141128,-1.37497 -1.566303,-1.39493 -3.334368,-0.15653 -1.752299,1.22735 -2.220988,1.22487 -3.464236,-0.0184 C 76.504139,258.647 75.439286,258 74.928571,258 74.417857,258 74,258.87448 74,259.9433 c 0,1.06881 1.000128,2.64381 2.222506,3.5 1.222379,0.85618 2.684879,1.54669 3.25,1.53446 z M 98.23603,140 c 0.750183,0 1.90397,-0.54 2.56397,-1.2 0.66,-0.66 1.2,-2.66797 1.2,-4.46216 0,-2.872 -0.50831,-3.49027 -4.25,-5.16937 -4.241396,-1.90336 -4.253434,-1.90293 -5.946008,0.21216 -0.932805,1.16565 -1.382805,2.42224 -1,2.79242 0.382804,0.37018 2.046008,0.82018 3.696008,1 2.728672,0.29738 2.971604,0.62089 2.68603,3.57695 -0.215589,2.23163 0.113425,3.25 1.05,3.25 z M 239.71028,91.28895 c -3.58019,0.158822 -7.79212,-0.181371 -9.35985,-0.755986 C 228.78269,89.95835 225.7,88.522157 223.5,87.341424 c -2.2,-1.180734 -4.93971,-3.203081 -6.08823,-4.494106 -1.14853,-1.291025 -3.08797,-4.019012 -4.30986,-6.062194 -1.22189,-2.043181 -2.42436,-4.968181 -2.67217,-6.5 -0.24781,-1.531818 -0.68597,-3.823596 -0.97369,-5.09284 -0.28772,-1.269244 -0.0318,-5.017219 0.56871,-8.328833 0.73405,-4.048018 2.21713,-7.587435 4.52577,-10.800898 1.88866,-2.62888 5.12493,-5.949956 7.1917,-7.380169 2.06677,-1.430213 5.72685,-3.293837 8.1335,-4.141386 C 232.28238,33.693449 235.9132,33 237.94423,33 c 2.03102,0 5.95591,0.672081 8.72197,1.493513 2.76606,0.821432 7.09382,3.069961 9.61723,4.996732 3.18914,2.435091 5.56043,5.478455 7.7773,9.981549 2.58623,5.253386 3.18117,7.664814 3.14644,12.753267 -0.0236,3.451217 -0.65188,7.97178 -1.39627,10.045698 -0.74438,2.073917 -2.91886,5.764338 -4.83217,8.200935 -1.96134,2.497779 -5.93891,5.760188 -9.11888,7.479333 -4.32393,2.337589 -7.15922,3.116544 -12.14957,3.337923 z M 234.54436,89 c 2.41794,0 2.45396,-0.126662 2.34607,-8.25 -0.0936,-7.04507 -0.22932,-7.665791 -0.92953,-4.25 -0.45099,2.2 -1.50672,5.9125 -2.34608,8.25 l -1.5261,4.25 2.45564,0 z M 242,89 c 1.1,0 1.98733,-0.5625 1.97184,-1.25 -0.0155,-0.6875 -0.88393,-3.725 -1.92987,-6.75 l -1.90171,-5.5 -0.0701,6.75 C 240.00668,88.356709 240.1906,89 242,89 z m -12.46066,-1.333333 c 0.80337,0 1.49766,-0.4875 1.54289,-1.083334 0.0452,-0.595833 0.28283,-2.299971 0.528,-3.786972 0.24518,-1.487002 1.08821,-4.524502 1.87341,-6.75 C 234.26884,73.820862 234.74514,72 234.54209,72 c -0.20306,0 -2.22783,3.223749 -4.49949,7.163887 -2.66049,4.614562 -3.74482,7.402115 -3.0471,7.833333 0.59576,0.368196 1.74048,0.669447 2.54384,0.669447 z m 18.99593,-0.428659 2.39339,-0.457525 -2.01638,-3.640241 C 247.80327,81.138109 245.75355,77.7 244.35734,75.5 c -1.39622,-2.2 -2.21121,-3.1 -1.8111,-2 0.40011,1.1 1.37281,4.743995 2.16156,8.097766 1.31858,5.606627 1.62686,6.060916 3.82747,5.640242 z M 223.6776,84.921053 c 0.0977,0.04342 1.78517,-2.567418 3.75,-5.801864 C 229.39242,75.884743 231,72.86416 231,72.406781 c 0,-0.457378 -2.25,1.38457 -5,4.093219 -2.75,2.708649 -5,5.466733 -5,6.129075 0,0.662342 0.5625,1.431232 1.25,1.708644 0.6875,0.277413 1.32992,0.539913 1.4276,0.583334 z m 30.51916,-1.026354 C 255.18854,83.363912 256,82.593879 256,82.183513 c 0,-0.410366 -2.76443,-3.432033 -6.14318,-6.714816 L 243.71365,69.5 l 3.32601,6 c 1.8293,3.3 3.78227,6.755947 4.33993,7.679882 0.75619,1.252867 1.4723,1.434569 2.81717,0.714817 z m 4.98114,-4.555694 c 0.97621,-0.883464 1.52618,-2.0088 1.22214,-2.500747 -0.30404,-0.491947 -2.0347,-1.669306 -3.84591,-2.616353 -1.81121,-0.947048 -5.26434,-2.792666 -7.67362,-4.101375 L 244.5,67.74106 l 6.45148,6.602122 c 6.02656,6.167279 6.56838,6.496324 8.22642,4.995823 z M 218.91004,80 c 0.36583,0 2.88131,-2.25 5.58996,-5 2.70865,-2.75 4.58189,-5 4.16275,-5 -0.41914,0 -2.20222,0.735474 -3.96241,1.634386 -1.76019,0.898912 -4.45649,2.517833 -5.99178,3.597603 -2.22312,1.563516 -2.55448,2.248738 -1.62756,3.365614 C 217.72114,79.368921 218.54421,80 218.91004,80 z m -3.21078,-6 c 0.8169,0 2.62945,-0.9 4.02787,-2 1.39842,-1.1 3.1018,-2 3.78528,-2 0.68349,0 1.8029,-0.675 2.48759,-1.5 0.68469,-0.825 0.81024,-1.5 0.279,-1.5 -0.53125,0 -3.51135,0.875762 -6.62245,1.946139 C 216.54545,70.016515 214,70.616515 214,70.279472 c 0,-0.337043 -0.23559,-0.377213 -0.52354,-0.08927 -0.28794,0.287946 -0.2398,1.262946 0.10699,2.166667 C 213.93024,73.260592 214.88235,74 215.69926,74 z m 45.4356,0 C 262.16069,74 263,73.55 263,73 c 0,-0.55 0.0223,-1.3375 0.0496,-1.75 0.0273,-0.4125 -1.21025,-1.04064 -2.75,-1.395867 -1.5398,-0.355226 -5.0496,-1.351178 -7.7996,-2.213226 l -5,-1.56736 2.5,1.940991 c 1.375,1.067545 2.87902,1.950996 3.34227,1.963226 0.46325,0.01223 1.98644,0.922236 3.38486,2.022236 1.39842,1.1 3.3819,2 4.40773,2 z m -46.73143,-6.386406 c 1.17223,-0.29421 4.486,-1.039917 7.36395,-1.657125 C 224.64532,65.33926 227,64.646561 227,64.417136 227,64.187711 223.44213,64 219.09362,64 c -7.5084,0 -7.87908,0.10441 -7.36395,2.074261 0.39985,1.529018 1.10268,1.93365 2.67376,1.539333 z M 263.25,67.87589 C 264.3747,67.955654 265,67.285375 265,66 c 0,-1.834748 -0.64035,-1.993477 -7.75,-1.921053 -4.2625,0.04342 -7.21706,0.296066 -6.5657,0.561434 0.65137,0.265367 3.35137,1.073991 6,1.796942 2.64864,0.722951 5.6032,1.370306 6.5657,1.438567 z m -43.05706,-6.234785 c 3.13112,-0.0092 5.47462,-0.369985 5.20778,-0.801742 -0.26684,-0.431757 -2.15366,-1.226014 -4.19294,-1.765016 -2.03928,-0.539001 -4.90261,-1.188693 -6.36296,-1.44376 -1.98642,-0.34695 -2.77795,0.0057 -3.14262,1.400184 -0.30965,1.184102 0.11169,2.003109 1.15519,2.245502 0.90343,0.209858 4.20443,0.374033 7.33555,0.364832 z m 38.8463,0.03585 C 262.34557,61.579632 265.03932,61.1625 265.02537,60.75 265.01142,60.3375 265,59.276216 265,58.391592 c 0,-1.248884 -0.6147,-1.460028 -2.75,-0.944596 -1.5125,0.365097 -4.45108,1.109881 -6.53017,1.655077 -2.0791,0.545196 -3.53536,1.387396 -3.23613,1.871555 0.29923,0.48416 3.24922,0.800659 6.55554,0.703331 z M 228.80902,58.867472 C 228.97898,58.940362 228.83992,58.55 228.5,58 c -0.33992,-0.55 -1.23433,-1 -1.98759,-1 -0.75325,0 -1.97535,-0.605794 -2.71576,-1.346209 -0.74042,-0.740415 -2.99994,-2.130954 -5.02116,-3.090086 -2.02122,-0.959133 -4.14757,-1.451781 -4.72522,-1.094774 C 213.47262,51.825938 213,52.720954 213,53.457856 c 0,0.835166 2.91911,2.081328 7.75,3.308455 4.2625,1.082748 7.88906,2.02827 8.05902,2.101161 z M 252,57.65452 c 1.375,-0.255815 4.6375,-1.011156 7.25,-1.678534 2.6125,-0.667379 4.75,-1.414578 4.75,-1.660442 0,-0.245865 -0.45728,-1.301472 -1.01619,-2.345793 -0.97016,-1.812769 -1.25323,-1.760303 -6.25,1.158433 -2.87859,1.681459 -5.68381,3.492407 -6.23381,4.024327 -0.64983,0.628471 -0.12458,0.804259 1.5,0.502009 z m -21.02889,-0.672658 c 0.25911,0.01 -2.43884,-2.917915 -5.99545,-6.506424 -5.82036,-5.87256 -6.59194,-6.353112 -7.72112,-4.808871 -0.68999,0.943631 -1.24771,1.967184 -1.23936,2.274563 0.008,0.307378 3.27086,2.463208 7.25,4.790732 3.97915,2.327523 7.44682,4.240023 7.70593,4.25 z M 248.5,55.400665 c 1.65,-1.048323 5.1375,-3.020434 7.75,-4.382468 2.6125,-1.362034 4.75,-2.737316 4.75,-3.056182 0,-0.318865 -0.56455,-1.351817 -1.25454,-2.295448 -1.12811,-1.542777 -1.90919,-1.042663 -7.75,4.962225 -3.98278,4.094657 -5.33495,5.94059 -3.49546,4.771873 z M 232.74144,56 c 0.16456,0 -0.72244,-1.858731 -1.97112,-4.130512 -1.24867,-2.271782 -3.04518,-5.612411 -3.99222,-7.423619 -0.94705,-1.811209 -2.22773,-3.605725 -2.84597,-3.987812 -0.61823,-0.382088 -1.85384,0.03508 -2.74581,0.927047 -1.49567,1.49567 -1.12116,2.126826 4.81708,8.118324 C 229.54475,53.076543 232.57687,56 232.74144,56 z m 1.68695,-3 c 0.21325,0 -0.28399,-2.3625 -1.10499,-5.25 -0.82099,-2.8875 -1.79212,-6.338229 -2.15806,-7.668286 C 230.7994,38.751657 230.05,37.521472 229.5,37.34797 c -0.55,-0.173502 -1.62982,0.08289 -2.3996,0.569758 -1.16224,0.735099 -1.04162,1.453065 0.71132,4.233744 1.161,1.84169 3.03746,5.036028 4.16992,7.098528 1.13245,2.0625 2.23349,3.75 2.44675,3.75 z m 8.12457,0 c 0.22734,0 1.59723,-2.3625 3.04419,-5.25 1.44697,-2.8875 3.34916,-6.064972 4.22709,-7.06105 1.38664,-1.573254 1.4045,-1.932325 0.136,-2.734687 -0.80313,-0.508001 -1.97396,-0.930528 -2.60183,-0.93895 -0.62788,-0.0084 -1.47136,1.222187 -1.8744,2.734687 -0.40304,1.5125 -0.87456,3.65 -1.04781,4.75 -0.17325,1.1 -0.76086,3.4625 -1.30579,5.25 -0.54494,1.7875 -0.80479,3.25 -0.57745,3.25 z m 3.25684,0 c 0.45919,0 2.93984,-2.257523 5.51255,-5.016718 C 253.89506,45.224087 256,42.572232 256,42.090271 c 0,-0.481961 -0.67411,-1.134972 -1.49801,-1.451134 -0.89926,-0.345079 -2.05429,0.311629 -2.88976,1.643011 -0.76546,1.219819 -2.572,4.130352 -4.01453,6.467852 -1.44254,2.3375 -2.24709,4.25 -1.7879,4.25 z M 236.5,52 c 0.275,0 0.5,-3.6 0.5,-8 0,-7.333333 -0.16667,-8 -2,-8 -1.1,0 -2,0.378481 -2,0.841069 0,0.462588 0.67013,3.050088 1.48918,5.75 0.81904,2.699912 1.49404,5.921431 1.5,7.158931 0.006,1.2375 0.23582,2.25 0.51082,2.25 z m 4.94397,-6.035833 c 0.71667,-1.944708 1.62072,-4.982208 2.00899,-6.75 C 244.07119,36.399404 243.90051,36 242.07946,36 c -1.90753,0 -2.07363,0.558105 -2.009,6.75 0.0701,6.717497 0.0767,6.732974 1.37351,3.214167 z m -4.0273,310.033013 c 3.89583,-0.002 11.13333,-0.48016 16.08333,-1.06357 4.95,-0.58342 12.375,-1.95764 16.5,-3.05383 4.125,-1.09619 9.75,-2.91202 12.5,-4.03519 2.75,-1.12316 7.7,-3.38603 11,-5.02859 3.3,-1.64256 7.74617,-3.99783 9.88037,-5.23393 2.13421,-1.2361 7.6923,-5.36024 12.35132,-9.16476 4.65902,-3.80452 10.78785,-9.61731 13.61963,-12.91731 2.83177,-3.3 5.59868,-6.54688 6.14868,-7.2153 0.55,-0.66841 1.56379,-1.8883 2.25288,-2.71087 0.68908,-0.82257 2.67993,-3.87569 4.42411,-6.7847 1.74418,-2.90902 5.06246,-9.11413 7.37396,-13.78913 2.3115,-4.675 5.21554,-12.1 6.45343,-16.5 1.23789,-4.4 2.84652,-12.275 3.57474,-17.5 0.72823,-5.225 1.34583,-12.50494 1.37246,-16.17764 0.0266,-3.6727 -0.40715,-10.1977 -0.96397,-14.5 -0.55681,-4.3023 -1.2522,-9.28486 -1.54531,-11.07236 -0.4388,-2.676 -0.98254,-3.25 -3.07865,-3.25 -1.46388,0 -4.28339,1.48738 -6.63468,3.5 -2.24893,1.925 -4.37043,3.5 -4.71443,3.5 -0.344,0 -0.23915,3.66329 0.23302,8.14064 0.47216,4.47735 0.63352,8.72689 0.35856,9.44341 -0.30953,0.80662 -1.51844,1.11807 -3.1743,0.81781 -1.47091,-0.26673 -4.40188,-1.36626 -6.51326,-2.44341 C 332.80717,227.8813 330.43366,227 329.64408,227 c -0.78957,0 -2.83899,2.18702 -4.55426,4.86003 -1.71528,2.67302 -6.37469,7.90663 -10.35425,11.63024 -3.97956,3.7236 -9.18538,7.61159 -11.56848,8.63996 C 300.784,253.1586 296.8694,254 294.46799,254 c -3.76541,0 -4.71296,0.45461 -6.88616,3.30383 -1.38597,1.8171 -3.20887,4.95265 -4.05089,6.96788 -0.84202,2.01523 -1.53094,6.19657 -1.53094,9.29188 0,3.52161 -0.64207,6.71476 -1.71561,8.53212 -0.94358,1.59736 -2.022,2.90429 -2.39649,2.90429 -0.37449,0 -2.81805,3.42893 -5.43012,7.61983 -2.61208,4.19091 -5.9989,10.9696 -7.52627,15.06375 -1.52736,4.09415 -3.88416,8.46996 -5.23733,9.72404 -1.35316,1.25407 -2.75687,3.21454 -3.11935,4.3566 -0.42065,1.32535 -2.33603,2.64788 -5.29507,3.65612 -2.54982,0.86882 -5.91296,1.57966 -7.47365,1.57966 -1.56068,0 -4.60517,-0.55165 -6.76552,-1.2259 -3.38551,-1.05661 -4.53598,-2.26488 -8.33138,-8.75 -2.42191,-4.13825 -6.69062,-12.12013 -9.48602,-17.7375 -2.79541,-5.61737 -9.8392,-17.59096 -15.65287,-26.60797 C 196.68567,262.00054 193,255.326 193,253.53638 c 0,-1.51123 -0.70987,-5.51265 -1.57749,-8.89204 -0.86762,-3.37938 -1.88012,-6.45607 -2.25,-6.83708 -0.36988,-0.381 -2.99286,0.969 -5.82885,3 -2.83599,2.03101 -8.91099,6.56164 -13.5,10.06808 -4.58901,3.50643 -9.13116,7.26879 -10.09366,8.36078 -0.9625,1.092 -1.75,3.06752 -1.75,4.39005 0,1.32253 1.68623,4.98518 3.74717,8.13921 2.06094,3.15404 4.00613,5.95962 4.32263,6.23462 0.31651,0.275 3.21901,4.325 6.45,9 3.23099,4.675 6.34831,8.98189 6.92737,9.57087 0.68166,0.69334 0.85235,5.00679 0.48416,12.23534 -0.31277,6.14046 -0.85412,11.44992 -1.20301,11.7988 -0.34888,0.34888 -2.79297,-0.96416 -5.43132,-2.91787 -2.63835,-1.95371 -7.77489,-6.62006 -11.41454,-10.36967 -3.63964,-3.74961 -8.39957,-9.29247 -10.5776,-12.31747 -2.17804,-3.025 -5.55742,-8.425 -7.50973,-12 -1.95232,-3.575 -4.71902,-9.65 -6.14822,-13.5 -1.42919,-3.85 -3.3029,-10.375 -4.16379,-14.5 -0.86089,-4.125 -1.82189,-11.55 -2.13556,-16.5 -0.31366,-4.95 -0.0696,-12.375 0.54245,-16.5 0.61201,-4.125 1.37939,-9.075 1.70529,-11 0.3259,-1.925 1.49662,-6.2 2.6016,-9.5 1.10497,-3.3 3.76271,-9.68593 5.90607,-14.19096 2.14337,-4.50502 3.89703,-8.42157 3.89703,-8.70344 0,-0.28186 -2.07531,-2.55843 -4.6118,-5.05904 C 138.85171,171.04595 136.46413,169 136.08247,169 c -0.38166,0 -2.91744,4.3875 -5.63507,9.75 -2.71764,5.3625 -4.94929,9.975 -4.95924,10.25 -0.01,0.275 -0.98354,2.975 -2.16354,6 -1.18,3.025 -3.13781,10.40547 -4.35067,16.40105 -1.90453,9.41467 -2.135,13.02797 -1.69022,26.5 0.36121,10.9408 1.11147,17.89134 2.51244,23.27559 1.0986,4.22215 2.95603,10.44655 4.12764,13.83201 1.17161,3.38545 3.51396,8.93097 5.20522,12.32336 1.69126,3.39239 5.93492,10.44299 9.43036,15.66799 3.49543,5.225 10.08702,13.16384 14.64797,17.64187 4.56095,4.47802 12.34264,10.83173 17.29264,14.11935 4.95,3.28761 10.8,6.88745 13,7.99964 2.2,1.1122 6.84455,3.17748 10.32121,4.58954 3.47667,1.41205 9.75088,3.50828 13.9427,4.65828 4.19181,1.15001 10.79727,2.34644 14.67878,2.65872 3.88152,0.31229 7.24481,0.73988 7.47398,0.9502 0.22916,0.21032 3.60416,0.38113 7.5,0.37958 z m 20.198,-45.82054 c 1.97111,-3.47785 3.6786,-6.85285 3.79442,-7.5 0.11583,-0.64715 1.42117,-3.52418 2.90075,-6.3934 L 267,291.06649 l 0,-79.86658 c 0,-43.92662 0.2961,-80.16267 0.65799,-80.52457 0.3619,-0.36189 1.1494,-0.27054 1.75,0.20301 0.60061,0.47355 2.89201,1.4234 5.09201,2.11078 2.2,0.68738 8.46471,3.46428 13.92158,6.1709 5.45687,2.70662 13.10687,7.32678 17,10.26702 3.89313,2.94024 10.00342,8.47347 13.57842,12.29606 3.575,3.82259 7.96183,8.79261 9.7485,11.04449 1.78668,2.25187 3.67828,5.22472 4.20357,6.60633 0.52528,1.3816 0.75592,3.54606 0.51253,4.8099 -0.2434,1.26385 -2.05433,3.65201 -4.0243,5.30704 -3.25815,2.73725 -3.55278,3.40958 -3.26103,7.4413 0.31605,4.3675 0.42287,4.48766 7.32073,8.2345 3.85,2.09127 7.5625,3.80929 8.25,3.81782 0.6875,0.009 2.13133,-0.86582 3.20851,-1.943 1.07718,-1.07718 3.74665,-2.87075 5.93215,-3.98571 2.1855,-1.11496 4.23201,-2.44525 4.54779,-2.95619 0.31578,-0.51094 -0.80776,-4.67693 -2.49676,-9.25774 -1.689,-4.58082 -5.8516,-13.05671 -9.25021,-18.83531 -4.99058,-8.48539 -8.48891,-12.825 -18.18539,-22.55862 -6.60335,-6.62865 -15.16443,-14.10709 -19.02462,-16.61876 -3.86019,-2.51167 -9.79609,-5.96879 -13.19089,-7.68248 -3.3948,-1.71369 -8.11146,-3.83034 -10.48147,-4.70367 -2.37001,-0.87333 -6.25675,-2.21934 -8.6372,-2.99111 -2.38045,-0.77178 -7.75245,-2.11056 -11.93778,-2.97507 -4.85254,-1.00232 -13.06706,-1.5905 -22.67191,-1.62337 -8.28422,-0.0284 -17.76222,0.45604 -21.06222,1.07642 -3.3,0.62039 -8.925,1.97704 -12.5,3.01478 -3.575,1.03774 -8.40416,2.59464 -10.73146,3.45976 -2.3273,0.86513 -6.3773,2.62802 -9,3.91753 -2.6227,1.28951 -6.96207,3.59034 -9.64305,5.11296 -2.68099,1.52261 -6.95599,4.3537 -9.5,6.29131 -2.54402,1.9376 -6.73305,5.2837 -9.30896,7.43576 -2.57591,2.15207 -7.05099,6.64571 -9.94462,9.98588 -4.77767,5.51493 -5.2866,6.56779 -5.53796,11.45684 -0.27389,5.32713 -0.23667,5.40428 3.53553,7.32872 l 3.81234,1.9449 3.90909,-5.18567 c 2.15,-2.85212 6.60909,-7.80602 9.90909,-11.00867 3.3,-3.20265 8.925,-7.88391 12.5,-10.4028 3.575,-2.51889 9.2,-6.06416 12.5,-7.87839 3.3,-1.81422 10.14554,-4.89704 15.2123,-6.85069 5.06677,-1.95366 9.96716,-3.5521 10.88976,-3.5521 0.9226,0 2.27525,0.7875 3.00589,1.75 1.07769,1.41967 1.33445,16.50166 1.36025,79.8999 l 0.0318,78.1499 5.6601,12.10667 c 3.11305,6.65867 5.86872,11.89804 6.12372,11.64304 0.255,-0.25499 0.38261,-41.5551 0.28358,-91.77801 -0.099,-50.22291 0.11845,-92.09223 0.48327,-93.04294 C 232.12308,126.23687 233.70666,126 243.10699,126 L 254,126 l 0.0154,95.25 0.0154,95.25 3.58383,-6.32336 z m 40.20515,-60.33668 c 1.27591,0.088 4.20091,-1.15111 6.5,-2.75363 2.2991,-1.60252 6.48901,-5.31502 9.31091,-8.25 2.82189,-2.93498 6.53439,-7.31635 8.25,-9.73637 1.7156,-2.42002 3.11927,-4.68744 3.11927,-5.03871 0,-0.35127 -2.42328,-2.10733 -5.38506,-3.90236 -2.96178,-1.79503 -7.73489,-4.15656 -10.60691,-5.24784 -2.87203,-1.09128 -7.90611,-2.61034 -11.18686,-3.37569 -5.58998,-1.30405 -6.08621,-1.27032 -7.89308,0.53655 -1.49406,1.49406 -1.92707,3.33501 -1.92354,8.17809 0.002,3.4375 0.29491,11.28902 0.6498,17.44781 l 0.64526,11.19782 3.10019,0.39215 c 1.70511,0.21568 4.14412,0.46416 5.42002,0.55218 z M 198.06677,241.5 c 0.33041,-3.3 0.42399,-6.3375 0.20797,-6.75 -0.21603,-0.4125 -1.26622,-0.75 -2.33376,-0.75 -1.55677,0 -1.94098,0.70264 -1.94098,3.54966 0,1.95231 0.77986,4.98981 1.73302,6.75 l 1.73302,3.20034 0.60073,-6 z M 154.68541,238 c 0.24883,0 4.13391,-2.60377 8.63351,-5.78616 4.49959,-3.18238 10.65608,-7.2862 13.68108,-9.11959 3.025,-1.83339 5.66039,-3.47751 5.85642,-3.6536 0.19604,-0.17609 -2.12731,-2.74507 -5.163,-5.70884 -4.74629,-4.63387 -5.61983,-6.07807 -6.23627,-10.31025 -0.39427,-2.70686 -1.34498,-6.15906 -2.11268,-7.67156 -0.76771,-1.5125 -1.57247,-2.75 -1.78836,-2.75 -0.2159,0 -1.07984,-0.26374 -1.91987,-0.5861 -1.13118,-0.43407 -2.57542,1.49844 -5.56803,7.45043 -2.77154,5.51233 -4.52774,10.80039 -5.59138,16.8361 -0.99999,5.67452 -1.31864,11.01918 -0.89727,15.04957 0.35939,3.4375 0.85702,6.25 1.10585,6.25 z m 36.58145,-22.00811 c 2.23019,-0.99849 4.39081,-2.41763 4.8014,-3.15366 0.41058,-0.73603 0.83808,-12.13823 0.95001,-25.33823 0.11192,-13.2 0.1536,-24.7875 0.0926,-25.75 -0.0743,-1.1726 -0.93936,-1.75 -2.62184,-1.75 -1.75977,0 -4.85399,2.23852 -10.34289,7.48258 -4.30756,4.11542 -9.70969,10.15951 -12.00472,13.4313 -2.29503,3.27179 -3.74331,6.21414 -3.21841,6.53855 0.52491,0.32441 2.35415,3.03639 4.06499,6.02662 1.71084,2.99023 3.27347,6.24322 3.4725,7.22887 0.19904,0.98564 0.84071,3.02958 1.42594,4.54208 0.58523,1.5125 1.49302,2.75 2.01732,2.75 0.52431,0 2.38314,2.20665 4.13074,4.90366 l 3.17746,4.90365 4.05489,-1.81542 z m 105.40622,-24.99563 c 2.1048,-0.002 5.28942,-0.89544 7.07692,-1.9853 2.70606,-1.64991 3.25,-2.58923 3.25,-5.61228 0,-2.5573 -1.00959,-5.00606 -3.41479,-8.2826 -1.87814,-2.55853 -4.25711,-5.41416 -5.2866,-6.34584 -1.02949,-0.93168 -3.54863,-2.39459 -5.59808,-3.2509 -3.64271,-1.52202 -3.7506,-1.50356 -4.81076,0.82325 -0.83625,1.83536 -0.73233,3.06119 0.45401,5.35531 1.35044,2.61147 1.36234,3.31466 0.0974,5.75292 -0.79263,1.52779 -1.44114,3.88597 -1.44114,5.24041 0,1.38851 1.27495,3.73756 2.92308,5.38569 2.21464,2.21464 3.85057,2.92217 6.75,2.91934 z"
     id="path3085"
     style="fill:#0606eb" />
</svg>
