<?xml version="1.0" encoding="UTF-8" standalone="no"?>
<!DOCTYPE svg PUBLIC "-//W3C//DTD SVG 1.1//EN" "http://www.w3.org/Graphics/SVG/1.1/DTD/svg11.dtd">
<svg width="100%" height="100%" viewBox="0 0 24 24" version="1.1" xmlns="http://www.w3.org/2000/svg" xmlns:xlink="http://www.w3.org/1999/xlink" xml:space="preserve" xmlns:serif="http://www.serif.com/" style="fill-rule:evenodd;clip-rule:evenodd;stroke-linejoin:round;stroke-miterlimit:2;">
    <g transform="matrix(1.503,0,0,1.503,-0.0243713,-1.67686)">
        <path d="M3.05,3.05C1.738,4.362 1,6.144 0.999,8C0.999,9.856 1.738,11.638 3.05,12.95C3.14,13.043 3.19,13.168 3.19,13.297C3.19,13.572 2.965,13.797 2.69,13.797C2.561,13.797 2.436,13.747 2.343,13.657C-0.759,10.553 -0.759,5.447 2.343,2.343C2.436,2.253 2.561,2.203 2.69,2.203C2.965,2.203 3.19,2.428 3.19,2.703C3.19,2.832 3.14,2.957 3.05,3.05M5.172,5.172C3.621,6.724 3.621,9.276 5.172,10.828C5.266,10.922 5.319,11.049 5.319,11.182C5.319,11.457 5.093,11.683 4.818,11.683C4.685,11.683 4.558,11.63 4.464,11.536C3.526,10.599 2.999,9.326 2.999,8C2.999,6.674 3.526,5.401 4.464,4.464C4.558,4.37 4.685,4.317 4.818,4.317C5.093,4.317 5.319,4.543 5.319,4.818C5.319,4.951 5.266,5.078 5.172,5.172M10.828,4.464C10.922,4.37 11.049,4.317 11.182,4.317C11.315,4.317 11.442,4.37 11.536,4.464C12.474,5.401 13.001,6.674 13.001,8C13.001,9.326 12.474,10.599 11.536,11.536C11.442,11.63 11.315,11.683 11.182,11.683C10.907,11.683 10.681,11.457 10.681,11.182C10.681,11.049 10.734,10.922 10.828,10.828C12.379,9.276 12.379,6.724 10.828,5.172C10.734,5.078 10.681,4.951 10.681,4.818C10.681,4.685 10.734,4.558 10.828,4.464M12.95,2.344C13.144,2.151 13.463,2.151 13.657,2.344C16.76,5.447 16.76,10.554 13.657,13.657C13.564,13.747 13.439,13.797 13.31,13.797C13.035,13.797 12.81,13.572 12.81,13.297C12.81,13.168 12.86,13.043 12.95,12.95C14.262,11.638 15,9.856 15.001,8C15,6.144 14.262,4.362 12.95,3.05C12.757,2.856 12.757,2.537 12.95,2.343L12.95,2.344ZM6,8C6,6.903 6.903,6.001 8,6.001C9.097,6.001 10,6.903 10,8.001C10,8.91 9.38,9.71 8.5,9.937L8.5,15.5C8.5,15.774 8.274,16 8,16C7.726,15.998 7.502,15.774 7.5,15.5L7.5,9.937C6.621,9.708 6.002,8.909 6,8" style="fill:rgb(105,208,255);fill-rule:nonzero;"/>
    </g>
</svg>
